<?xml version="1.0" encoding="UTF-8"?>
<svg xmlns="http://www.w3.org/2000/svg" width="162" height="273.15">
<g
     style="display:inline;opacity:1"
     transform="translate(-29.14,-8.8033584)"><g
       id="g76"
       style="display:inline;opacity:1"><path
         id="rect4"
         style="display:inline;opacity:1;fill:#9eb9b9;fill-opacity:1;stroke:none;stroke-width:0.5;stroke-linejoin:round;stroke-miterlimit:11.7;stroke-dasharray:none;stroke-opacity:1"
         d="m 52.477594,163.82129 1.133264,12.01632 17.727083,2.69854 1.220081,-12.75529 z" /><path
         id="path93"
         style="display:inline;opacity:1;fill:#000000;fill-opacity:1;stroke:none;stroke-width:0.5;stroke-linejoin:round;stroke-miterlimit:11.7;stroke-dasharray:none;stroke-opacity:1"
         d="m 123.07949,187.88597 -25.382951,0.60048 -3.017387,11.6675 c 7.368738,0.35883 14.992588,2.18642 21.993488,0.20154 1.8786,-0.53262 5.36384,1.1128 5.61465,-2.41536 z" /><rect
         style="display:inline;opacity:1;fill:#eea1b7;fill-opacity:1;stroke:none;stroke-width:0.5;stroke-linecap:butt;stroke-linejoin:round;stroke-miterlimit:11.7;stroke-dasharray:none;stroke-opacity:1"
         id="rect22"
         width="8.9275398"
         height="9.5590811"
         x="81.286591"
         y="155.54169" /><path
         id="path14"
         style="opacity:1;fill:#b7b4b7;fill-opacity:1;stroke:none;stroke-width:0.499999;stroke-linecap:round;stroke-linejoin:round;stroke-miterlimit:11.7;stroke-opacity:1"
         d="m 89.3787,243.63554 -20.599259,18.03817 c 2.714734,3.34039 7.81635,13.33195 13.00179,12.85451 5.63995,-0.6759 13.353866,-16.0836 13.063286,-21.04677 -0.36891,-3.78728 -3.213797,-6.95525 -5.465817,-9.84591 z m 27.43398,7.13393 -19.134228,20.30005 c 2.714738,3.34039 6.351328,11.07059 11.536768,10.59315 5.63995,-0.6759 13.35334,-16.08412 13.06276,-21.04729 -0.36891,-3.78728 -3.21328,-6.95525 -5.4653,-9.84591 z" /><path
         style="baseline-shift:baseline;display:inline;overflow:visible;opacity:1;vector-effect:none;fill:#73163e;fill-opacity:1;stroke:none;stroke-linecap:square;stroke-linejoin:round;stroke-miterlimit:11.7;stroke-opacity:1;enable-background:accumulate;stop-color:#000000;stop-opacity:1"
         d="m 117.64453,254.07031 -0.80273,0.59375 0.29687,0.40235 1.15039,1.55859 -0.20431,7.40722 0.92191,-2.04754 0.28632,-5.50031 -0.0977,-0.3125 -1.2539,-1.69921 z"
         id="path35" /><path
         id="path37"
         style="display:inline;opacity:1;fill:#2a506e;fill-opacity:1;stroke:none;stroke-width:0.5;stroke-linecap:butt;stroke-linejoin:round;stroke-miterlimit:11.7;stroke-dasharray:none;stroke-opacity:1"
         d="m 79.207228,263.25966 -3.816821,2.81017 4.803841,7.82949 4.408516,-1.45004 z m 28.304732,8.57984 -4.14755,3.04529 4.26382,6.14898 4.408,-1.45056 z" /><path
         id="path42"
         style="display:inline;opacity:1;fill:#73163e;fill-opacity:1;stroke:none;stroke-width:1;stroke-linecap:butt;stroke-linejoin:round;stroke-miterlimit:11.7;stroke-dasharray:none;stroke-opacity:1"
         d="m 90.548138,264.85078 c -5.46884,7.61997 -8.58072,8.17621 -13.35164,7.97626 5.86126,4.96716 10.862262,-2.96149 13.554212,-7.59437 -0.12913,-0.24358 -0.202572,-0.38189 -0.202572,-0.38189 z m 27.433982,7.13393 c -5.46884,7.61997 -8.58072,8.17621 -13.35164,7.97626 5.86126,4.96716 10.86226,-2.96149 13.55421,-7.59437 -0.12913,-0.24358 -0.20257,-0.38189 -0.20257,-0.38189 z" /><path
         id="path32"
         style="display:inline;opacity:1;fill:none;stroke:#7c8183;stroke-width:0.499999;stroke-linecap:round;stroke-linejoin:round;stroke-miterlimit:11.7;stroke-opacity:1"
         d="m 101.60532,276.63107 c 1.32444,-1.29409 2.89479,-2.75848 4.05962,-3.62917 3.31576,-2.47848 8.0295,-3.12679 10.71682,-6.27568 1.97788,-2.3176 3.56786,-7.00888 4.50442,-10.30266 m -13.62141,8.95996 0.53725,1.84485 c -3.14621,1.05516 -4.96691,2.39126 -7.13459,3.97332 l -0.987986,-1.0973 M 73.301431,268.0426 c 1.32444,-1.29409 2.89479,-2.75848 4.05962,-3.62917 3.31576,-2.47848 8.0295,-3.12679 10.71682,-6.27568 m -9.341551,-3.06111 1.540746,3.63322 c -3.14621,1.05516 -5.372944,3.14532 -7.540624,4.72738 l -1.945832,-2.71711 m -2.011037,0.95353 c 2.714734,3.34039 7.816291,13.33223 13.001731,12.85479 5.63995,-0.6759 13.35364,-16.08386 13.06306,-21.04703 -0.36891,-3.78728 -3.21366,-6.95539 -5.46568,-9.84605 z m 28.898703,9.39609 c 2.714734,3.34039 6.351404,11.0703 11.536844,10.59286 5.63995,-0.6759 13.35364,-16.08386 13.06306,-21.04703 -0.36891,-3.78728 -3.21366,-6.95539 -5.46568,-9.84605 z" /><path
         id="path36"
         style="display:inline;opacity:1;fill:#30648b;fill-opacity:1;stroke:none;stroke-width:0.5;stroke-linecap:butt;stroke-linejoin:round;stroke-miterlimit:11.7;stroke-dasharray:none;stroke-opacity:1"
         d="m 67.309587,159.91272 c -1.892921,2.07258 -5.164975,6.09875 -7.648112,8.70076 -2.843744,1.36165 -2.184674,0.61348 -3.431315,3.31866 -29.484346,27.80637 -25.421904,20.29991 -3.613217,71.28609 l 1.864486,8.20002 c 2.159095,0.93626 2.273328,2.4727 6.828007,3.69693 2.068609,3.54542 1.264373,6.0768 5.16816,7.43779 5.506185,-1.84158 10.659323,-5.40913 15.459522,-10.70219 l 1.408182,2.41225 c 1.694701,14.80725 -1.797656,8.47405 9.820073,14.44667 0.546248,3.89493 -0.754082,2.71084 4.512903,2.36006 8.703664,-3.98568 15.277984,-9.68421 20.217884,-16.80673 1.83043,-5.36648 1.69154,-4.18761 -1.53944,-6.82232 -1.71734,-11.39857 1.53947,-8.62224 -8.53798,-12.34447 L 97.26228,224.60179 c 1.537022,-5.92746 1.120611,-5.35188 -3.161564,-5.20019 5.813254,-14.48493 13.963224,-23.62902 21.163054,-34.94464 -14.96341,-10.79382 -21.913247,-33.33775 -47.954183,-24.54424 z m 6.165723,30.05198 c -2.464827,7.02407 -5.749051,13.75895 -6.515056,21.38261 l -2.081527,-3.11273 1.214396,-2.3226 -0.969069,-1.91107 c 4.148572,-4.78158 5.522374,-6.4547 8.351256,-14.03621 z" /><path
         id="path39"
         style="display:inline;opacity:1;fill:#173a51;fill-opacity:1;stroke:none;stroke-width:0.499999;stroke-linecap:butt;stroke-linejoin:round;stroke-miterlimit:11.7;stroke-dasharray:none;stroke-opacity:1"
         d="m 86.482576,159.3541 c -6.114691,1.8366 -8.992478,4.62353 -14.986682,9.21029 -3.407187,-1.36339 -6.770464,-1.76517 -10.118245,-1.82315 -0.594572,0.66846 -1.174222,1.30434 -1.716174,1.87224 -2.172417,-0.12849 -3.431286,3.3187 -4.788855,4.59662 8.980328,-3.15924 9.010791,-5.47718 17.476452,-1.61127 6.235791,-4.77162 9.098884,-7.59548 15.742192,-9.42785 h 5.17e-4 l 1.001489,-1.67483 c -0.842407,-0.42774 -1.711125,-0.81075 -2.610694,-1.14205 z m -2.953308,14.90658 -0.338997,0.56689 c -0.645414,1.07923 -0.164905,2.13714 1.056783,2.43448 9.396889,2.20361 15.038579,7.35719 21.211106,15.31379 l -3.73827,3.48764 -1.27848,1.25988 c -0.23549,0.23175 -0.28768,0.59203 -0.12764,0.88108 l 0.47853,0.863 c 0.13778,0.24902 0.1321,0.55267 -0.015,0.79633 l -12.340848,20.46697 c -0.276947,0.45924 0.0843,1.03868 0.618567,0.99218 l 6.622335,-0.57619 c 0.371292,-0.0324 0.607823,0.38767 0.387573,0.68833 l -2.794144,3.81579 c -0.266792,0.36422 -0.114152,0.88242 0.307474,1.04386 l 3.619934,1.38648 c 3.376099,4.28571 5.727569,8.51116 10.777639,12.89534 l 1.34824,0.79117 c 0.74223,0.43536 1.20576,1.22434 1.22473,2.08462 l 0.18862,8.59534 c 0.0148,0.67158 0.51108,1.47433 1.14928,1.68207 0.50659,0.1649 0.84769,0.20762 1.22266,0.32866 0.4318,0.13939 0.64765,0.6964 0.52504,1.1343 l -0.49455,1.76682 c -0.12492,0.44512 0.11927,0.91037 0.55656,1.0604 l 1.02784,0.35243 c 1.12556,-1.31097 2.18168,-2.68157 3.1719,-4.10931 1.83043,-5.36648 1.69154,-4.18761 -1.53944,-6.82232 -1.71734,-11.39857 1.53947,-8.62224 -8.53798,-12.34447 L 97.26228,224.60179 c 1.537022,-5.92746 1.120611,-5.35188 -3.161564,-5.20019 3.833722,-9.55252 8.683424,-16.78241 13.606924,-23.84403 l 5.1e-4,5.2e-4 c 0.71362,-1.0235 1.42868,-2.04348 2.14251,-3.06648 l -5.2e-4,-5.2e-4 c 0.69521,-0.99631 1.38942,-1.99531 2.07946,-3.00343 -0.57255,-0.43879 -1.15241,-0.8807 -1.73994,-1.32602 l -2.22519,2.07584 c -7.5417,-8.67887 -15.408964,-13.74874 -24.435202,-15.9768 z m -14.494722,0.93328 c 3.229685,3.51482 10.020694,10.15496 10.715625,10.09912 0.992225,-0.0797 4.741286,-0.94824 6.637838,-2.27583 -6.244663,-2.18505 -11.701139,-5.10861 -17.353463,-7.82329 z m -6.463171,4.11344 c -0.101017,0.0409 1.522588,3.4875 2.197281,4.56975 0.262624,0.42126 6.218198,3.69979 8.407756,4.7842 -1.249823,0.31601 -3.766007,1.00946 -7.634676,2.32803 -0.931389,0.31742 -1.999223,-0.13303 -2.957442,0.094 -2.909047,0.68938 -5.708548,2.01978 -8.183997,3.54758 -0.257463,0.20266 -0.07534,1.09476 0.445451,0.93483 4.351387,-1.33629 14.194391,-5.10925 18.501196,-6.82077 0.180231,0.0876 0.326838,0.15599 0.433049,0.20102 -1.004914,1.58925 -2.536254,4.38213 -4.757333,6.63887 -3.117273,2.98964 -7.108508,5.13621 -10.488248,7.7711 -1.167253,-0.55993 -3.182661,-2.3094 -4.763017,-3.26853 -1.197606,-0.72683 -1.470728,-0.54329 -0.824239,0.69918 0.778518,1.49622 1.560253,2.98888 2.505273,4.3186 l 1.392163,-0.11627 c 1.189781,0.29684 2.37032,0.49751 3.59668,1.16013 -0.607906,1.02642 -0.632332,2.11312 0.985986,0.87024 0.302108,-0.23202 1.312582,0.22803 1.145667,0.66714 -1.061589,2.79279 -2.038392,2.62819 1.461409,4.5191 0.715956,0.38683 1.242137,2.07226 1.940967,3.64371 0.253131,-2.00455 0.574483,-2.57697 0.984953,-4.50205 l -2.081527,-3.11248 c 0,0 1.061235,-2.35851 1.127063,-2.49545 l -0.8816,-1.7384 c 0.583913,-0.673 0.99851,-1.07249 1.280025,-1.26245 l 4.610055,-6.90707 c 0,0 1.169335,-2.65905 2.874243,-6.84248 0.04444,0.0158 0.07241,0.0225 0.08217,0.0186 -0.01974,-0.0248 -0.03966,-0.0496 -0.05943,-0.0744 0.06612,-0.16231 0.133344,-0.32723 0.201021,-0.49403 -0.08502,0.12345 -0.174672,0.26029 -0.269234,0.40825 -0.06077,-0.0758 -0.121848,-0.15151 -0.182935,-0.22686 0.160143,-0.0639 0.311151,-0.12465 0.452169,-0.18139 -0.0058,0.001 -0.173051,0.0358 -0.505395,0.11576 -2.821348,-3.46873 -6.002925,-6.45345 -11.031368,-9.2475 -0.0017,-4.8e-4 -0.0029,-4.8e-4 -0.0041,0 z m 3.434415,26.43198 5.17e-4,10e-4 c 0.0039,-0.009 0.0035,-0.009 -5.17e-4,-10e-4 z m -23.680208,14.35003 c 4.961288,10.55115 9.575197,19.97913 12.155847,31.32884 -1.619629,-7.12314 -0.04016,-17.02672 -0.422713,-18.32653 -0.382557,-1.29981 -7.846896,-8.64332 -11.733134,-13.00231 z m 34.043917,22.0524 5.567619,9.70897 1.408182,2.41225 c 1.534466,13.40722 -1.183636,9.48289 6.912757,13.0545 l -1.30328,-2.99 c -0.436787,-1.00203 -0.273989,-2.5337 0.371554,-3.41581 11.285449,-15.42116 12.924229,-13.97149 -2.613278,-11.68559 -1.080508,0.15896 -2.690594,-0.21905 -3.594612,-0.83354 z m 1.227832,3.97598 c -0.381398,-0.01 -1.045839,0.23242 -1.968356,0.73071 -3.698877,1.9979 -8.537817,3.81329 -12.98267,5.30717 -2.656151,0.89271 -2.556752,1.49559 0.24443,1.40766 7.877816,-0.24728 10.609518,-0.63881 14.137121,-5.3144 1.054448,-1.39759 1.205137,-2.11459 0.569475,-2.13114 z" /><path
         style="display:inline;opacity:1;fill:none;fill-opacity:1;stroke:#2b5a7e;stroke-width:0.499999;stroke-linecap:butt;stroke-linejoin:round;stroke-miterlimit:11.7;stroke-dasharray:none;stroke-opacity:1"
         d="m 74.112315,188.43924 c 2.165548,-11.88691 6.960649,-21.29895 14.385303,-28.23612"
         id="path48" /><path
         id="path38"
         style="display:inline;opacity:1;fill:none;fill-opacity:1;stroke:#173a51;stroke-width:0.499999;stroke-linecap:butt;stroke-linejoin:round;stroke-miterlimit:11.7;stroke-dasharray:none;stroke-opacity:1"
         d="m 107.96447,190.23748 -6.24458,5.826 -7.325215,-14.12843 0.822232,-2.79086 M 81.937118,251.85078 C 65.739149,222.7356 63.417265,226.15518 66.960254,211.34731 m 0.349333,-51.43459 c -1.892921,2.07258 -5.164975,6.09875 -7.648112,8.70076 -2.843744,1.36165 -2.184674,0.61348 -3.431315,3.31866 -29.484346,27.80637 -25.421904,20.29991 -3.613217,71.28609 1.278358,7.63788 0.844813,9.08435 8.692493,11.89695 2.068609,3.54542 1.264373,6.0768 5.16816,7.43779 5.506185,-1.84158 10.659323,-5.40913 15.459522,-10.70219 l 1.408182,2.41225 c 1.694701,14.80725 -1.797656,8.47405 9.820073,14.44667 0.546248,3.89493 -0.754082,2.71084 4.512903,2.36006 8.703664,-3.98568 15.277984,-9.68421 20.217884,-16.80673 1.83043,-5.36648 1.69154,-4.18761 -1.53944,-6.82232 -1.71734,-11.39857 1.53947,-8.62224 -8.53798,-12.34447 L 97.26228,224.60179 c 1.537022,-5.92746 1.120611,-5.35188 -3.161564,-5.20019 5.813254,-14.48493 13.963224,-23.62902 21.163054,-34.94464 -14.96341,-10.79382 -21.913247,-33.33775 -47.954183,-24.54424 z m 6.802729,28.52652 c -2.464827,7.02407 -6.386057,15.28441 -7.152062,22.90807 l -2.081527,-3.11273 1.214396,-2.3226 -0.969069,-1.91107 c 4.450312,-4.681 6.15938,-7.98016 8.988262,-15.56167 z" /></g><g
       id="g77"
       style="display:inline"><path
         id="path1"
         style="display:inline;opacity:1;fill:#e8eefc;fill-opacity:1;stroke:none;stroke-width:0.5;stroke-linejoin:round;stroke-miterlimit:11.7;stroke-dasharray:none;stroke-opacity:1"
         d="m 121.94437,125.13343 -20.19825,0.85318 -21.793498,11.28458 c -4.090246,-2.07228 -8.986475,-2.97736 -13.076721,-3.76773 -1.336385,0.75028 -2.103731,2.00595 -2.302185,3.76773 -3.019565,9.4001 -3.122781,16.83102 -3.141411,22.85855 -3.512781,1.01155 -7.261067,1.74085 -9.553938,4.21628 -0.344171,0.37158 -0.624217,1.12114 -0.600481,1.62729 0.157209,3.35229 0.525076,4.78025 2.257348,8.49201 l 0.599153,-0.56202 c -2.56292,-2.95372 -1.129736,-3.60012 -1.034906,-6.9507 6.100449,-0.16082 12.175384,-0.87751 18.396293,1.61179 7.127755,-5.45415 9.848881,-8.3633 18.845878,-10.15597 l -8.004679,13.38471 c -0.645414,1.07923 -0.164905,2.13714 1.056783,2.43448 11.201714,2.72628 20.616334,9.8118 29.831254,22.71799 1.94036,1.15439 4.25915,1.98248 6.53759,2.42466 1.14293,0.22181 2.21178,-0.63803 2.35231,-1.7942 1.25623,-10.33585 1.7087,-20.67208 2.08876,-31.00793 4.68125,4.72876 8.34819,13.15306 15.56804,13.18576 39.16446,-9.65384 0.059,-43.82421 -17.82734,-54.62044 z m -54.722754,10.32495 c 2.803821,-0.061 10.807234,9.62647 8.873877,19.02416 -4.962667,1.12217 -9.293155,2.68654 -12.991455,4.69377 0.631199,-3.16381 0.06175,-23.63073 4.117578,-23.71793 z m 88.149144,30.92524 c 0.0566,1.31784 -2.14739,3.30249 -4.83175,5.08497 v 5.1e-4 c -3.31926,2.20399 -7.46852,3.62247 -8.72294,4.02339 -0.20713,0.0662 -0.39033,-0.0594 -0.40789,-0.2766 -0.13139,-1.62543 -0.62785,-7.79859 -0.70319,-9.19971 -1.549,-29.85638 14.26026,-9.06843 14.66577,0.36744 z" /><path
         id="path29"
         style="display:inline;opacity:1;fill:#9eb9b9;fill-opacity:1;stroke:none;stroke-width:0.499999;stroke-linecap:butt;stroke-linejoin:round;stroke-miterlimit:11.7;stroke-dasharray:none;stroke-opacity:1"
         d="m 115.83238,124.42214 c -4.81278,0.079 -14.08596,1.64745 -14.08596,1.64745 l -10.895975,5.64203 7.35459,-0.30283 c -1.697384,1.30341 -3.233419,2.70438 -4.539775,4.12533 -0.713123,1.08104 -0.796693,1.09095 0.353984,0.49661 3.428112,-1.77066 7.389916,-3.58806 10.809156,-5.11803 l 0.28681,3.9393 2.62516,0.4408 4.4235,-3.61167 c 4.0136,5.56359 3.31797,6.0012 5.04931,8.29045 3.76289,-5.45302 5.78303,-7.64016 9.02632,-11.98325 -3.05716,-2.59595 -6.66385,-3.62765 -10.40712,-3.56619 z m -35.879978,12.84883 c 1.590234,2.10453 7.225766,1.78438 7.340638,0.52141 0.05624,-0.61836 -5.980304,-0.49432 -7.340638,-0.52141 z m 44.239158,5.38468 c -2.05766,5.90404 -1.79227,5.48752 -2.60604,16.8119 -0.11498,13.71026 2.36792,12.08507 1.88361,22.99033 l 0.73432,-15.80679 1.26814,1.38751 c -4.66724,-8.28137 -3.76431,-8.88158 -2.92644,-14.79858 4.18187,-2.28501 6.20118,-5.89254 5.14491,-6.70502 -1.4494,-1.11486 -4.25032,3.71257 -5.09737,5.0307 0.37714,-2.79109 0.72413,-5.97565 1.59887,-8.91005 z m -17.96583,0.0481 -18.889282,12.02046 2.587955,3.76928 2.058273,-0.62012 0.392224,2.29392 a 1.5430427,1.5430427 0 0 0 1.012858,1.19734 l 5.010547,1.74666 a 1.6641992,1.6641992 0 0 0 1.836585,-0.51831 l 3.42614,-4.19251 a 3.5866377,3.5866377 0 0 0 0.78032,-1.81229 z m 49.92926,18.84278 -1.40354,1.5751 c 2.2229,6.21347 -5.36462,9.18257 -10.22986,11.47992 1.11347,0.29186 1.56133,1.39102 1.34358,3.29747 9.41758,-3.83635 11.8559,-9.76458 10.28982,-16.35249 z m -104.876806,4.5098 c 0.02306,2.73345 0.775377,5.53645 2.257226,8.40879 0.20115,-0.18858 0.404025,-0.37892 0.608749,-0.57102 -0.997791,-2.18542 -1.111933,-4.47169 -1.044381,-6.8585 -1.021336,-0.0779 -1.313023,-0.59367 -1.821594,-0.97927 z" /><path
         id="path10"
         style="display:inline;opacity:1;fill:none;fill-opacity:1;stroke:#7c8c98;stroke-width:0.5;stroke-linejoin:round;stroke-miterlimit:11.7;stroke-dasharray:none;stroke-opacity:1"
         d="m 107.98676,146.60816 c 3.99492,-0.0589 7.60843,0.92398 10.84052,2.94863 m -9.38186,-5.48121 c -0.95106,1.46796 -1.93559,3.58154 -2.95359,6.34074 1.06582,1.43615 2.60132,2.76391 4.60651,3.98328 2.22197,0.19871 4.29942,0 6.23235,-0.59614 1.08389,-2.32132 1.84261,-4.64264 2.27616,-6.96396 -3.02585,-1.8968 -6.41299,-2.81811 -10.16143,-2.76392 z" /><path
         id="path58"
         style="display:inline;opacity:1;fill:#7d8c98;fill-opacity:1;fill-rule:nonzero;stroke:none;stroke-width:0.5;stroke-linecap:round;stroke-linejoin:round;stroke-miterlimit:11.7;stroke-dasharray:none;stroke-opacity:1"
         d="m 122.32694,164.08812 c 0.20558,0.74906 0.48939,1.38614 0.8725,1.8986 0.49377,0.70619 1.00423,0.66459 1.00423,0.66459 0,0 -0.40621,-0.14676 -0.76053,-0.8143 -0.27831,-0.5708 -0.41968,-1.11836 -0.63443,-1.88266 -0.65277,-2.35083 -1.01671,-6.13009 -0.74989,-10.32666 0.26683,-4.19656 1.16211,-8.81526 3.00222,-12.87204 0.95713,-2.10715 1.97417,-3.79411 3.04665,-5.19691 1.00122,-1.30959 1.81434,-2.06984 1.81434,-2.06984 0,0 -0.89415,0.66315 -2.00672,1.91084 -1.17069,1.31288 -2.3472,3.02467 -3.30961,5.14937 -3.73299,8.2299 -3.62686,18.68407 -2.27876,23.53901 z M 91.560916,138.90813 c 1.283194,-1.58494 2.437351,-3.29317 2.437351,-3.29317 0,0 -1.532613,1.38111 -2.825954,2.97855 -2.800134,3.45855 -4.530267,6.03293 -6.966575,9.34342 -1.284372,1.74522 -2.418893,3.61418 -2.418893,3.61418 0,0 1.530218,-1.56307 2.821595,-3.31782 2.443848,-3.32074 4.163943,-5.88094 6.952476,-9.32516 z" /><path
         id="path27"
         style="display:inline;opacity:1;fill:none;fill-opacity:1;stroke:#000000;stroke-width:0.5;stroke-linejoin:round;stroke-miterlimit:11.7;stroke-dasharray:none;stroke-opacity:1"
         d="m 121.94437,125.13343 -20.19825,0.85318 -21.793498,11.28458 c -4.090246,-2.07228 -8.986475,-2.97736 -13.076721,-3.76773 -1.336385,0.75028 -2.103731,2.00595 -2.302185,3.76773 -3.019565,9.4001 -3.122781,16.83102 -3.141411,22.85855 -2.803094,0.94931 -9.913772,1.95517 -10.154419,5.84357 0.157209,3.35229 0.525076,4.78025 2.257348,8.49201 l 0.599153,-0.56202 c -1.244871,-2.98979 -1.63226,-4.55276 -1.034906,-6.9507 6.100449,-0.16082 12.175384,-0.87751 18.396293,1.61179 7.127755,-5.45415 9.848881,-8.3633 18.845878,-10.15597 l -8.004679,13.38471 c -0.645414,1.07923 -0.164905,2.13714 1.056783,2.43448 11.201714,2.72628 20.616334,9.8118 29.831254,22.71799 1.94036,1.15439 4.25915,1.98248 6.53759,2.42466 1.14293,0.22181 2.21178,-0.63803 2.35231,-1.7942 1.25623,-10.33585 1.7087,-20.67208 2.08876,-31.00793 4.68125,4.72876 8.34819,13.15306 15.56804,13.18576 39.16446,-9.65384 0.059,-43.82421 -17.82734,-54.62044 z m -54.722754,10.32495 c 2.803821,-0.061 10.807234,9.62647 8.873877,19.02416 -4.962667,1.12217 -9.293155,2.68654 -12.991455,4.69377 0.631199,-3.16381 0.06175,-23.63073 4.117578,-23.71793 z m 88.149144,30.92524 c 0.0566,1.31784 -2.14739,3.30249 -4.83175,5.08497 v 5.1e-4 c -3.31926,2.20399 -7.46852,3.62247 -8.72294,4.02339 -0.20713,0.0662 -0.39033,-0.0594 -0.40789,-0.2766 -0.13139,-1.62543 -0.62785,-7.79859 -0.70319,-9.19971 -1.549,-29.85638 14.26026,-9.06843 14.66577,0.36744 z" /><path
         id="path94"
         style="display:inline;opacity:1;fill:#9eb9b9;fill-opacity:1;stroke:none;stroke-width:0.5;stroke-linejoin:round;stroke-miterlimit:11.7;stroke-dasharray:none;stroke-opacity:1"
         d="m 67.130963,135.592 c -4.055828,0.0872 -3.486379,20.55412 -4.117578,23.71793 3.6983,-2.00723 8.028788,-3.5716 12.991455,-4.69377 1.933357,-9.39769 -6.070056,-19.08516 -8.873877,-19.02416 z m 77.493457,13.42916 c -1.1727,0.0441 -2.18665,1.01338 -2.86752,3.29023 -2.03162,6.79385 -1.17167,11.72106 -0.62839,22.96915 0.10159,2.10325 14.29421,-5.44462 14.15159,-8.76329 -0.25835,-6.0116 -6.46747,-17.65355 -10.65568,-17.49609 z" /><path
         id="path6"
         style="display:inline;fill:#f0c0ce;fill-opacity:1;stroke:none;stroke-width:0.5;stroke-linejoin:round;stroke-miterlimit:11.7;stroke-dasharray:none;stroke-opacity:1"
         d="m 143.58607,149.33972 c -0.73032,0.45122 -1.35923,1.39983 -1.82935,2.97191 -1.09216,3.65224 -1.34884,6.76487 -1.26814,10.61021 5.79721,3.21672 10.04648,5.21457 13.07517,6.28179 5.25033,-4.91117 -4.51448,-17.64606 -6.42286,-19.14096 z" /><path
         id="path46"
         style="display:inline;fill:#eea1b7;fill-opacity:1;stroke:none;stroke-width:0.5;stroke-linejoin:round;stroke-miterlimit:11.7;stroke-dasharray:none;stroke-opacity:1"
         d="m 143.58607,149.33972 c -1.72405,1.06518 -3.2537,6.13875 -3.09749,13.58212 1.71954,0.95413 3.30266,1.80099 4.75837,2.54816 -0.41078,-7.55018 -4.12368,-8.69148 1.1591,-15.55667 z" /><path
         style="fill:#f5ebed;fill-opacity:1;stroke:none;stroke-width:0.5;stroke-linejoin:round;stroke-miterlimit:11.7;stroke-dasharray:none;stroke-opacity:1"
         d="m 155.00792,169.70411 c 10.88352,3.13063 12.81427,-4.28467 3.50389,-23.12136 v -6.45772 c 0,-0.82595 -0.39752,-2.0357 -0.82985,-2.73924 -4.04472,-6.58197 -2.84229,-13.15249 -6.976,-16.56277 -8.58298,-7.0809 -22.76756,-2.19459 -22.76612,1.93124 6.7e-4,1.9041 17.7266,1.10314 17.7266,3.88598 0,2.2221 -5.24418,-0.71697 -10.407,2.07454 -2.48042,1.34115 -5.90869,3.443 -6.8305,9.16553 -0.49757,3.08888 6.78689,-1.96479 11.49017,-3.53035 4.28112,-1.42504 5.74733,-0.28352 5.74733,-0.28352 0,0 -3.41744,-2.16499 -14.75549,4.3453 -0.74614,0.42843 -1.46451,1.49102 -1.36592,2.34353 0.1268,1.09651 0.5764,2.30978 1.63508,3.22976 0.64723,0.56244 1.97732,0.60585 2.77543,0.28412 3.87901,-1.56371 8.1027,-4.08639 11.26801,-3.52038 -3.56611,-0.64846 -7.79837,2.33668 -11.72904,3.67675 -0.63369,0.9517 -0.43256,1.63977 0.21902,2.18559 0.52175,0.43707 1.61036,0.63909 2.2929,0.6373 3.42657,-0.009 5.84939,-0.1066 9.01614,1.79225 1.109,0.024 1.98492,0.55679 2.24659,1.24652 l 1.56892,10.37798 c 0,0 1.58979,7.7215 6.16984,9.03895 z"
         id="path21" /><path
         id="path49"
         style="fill:#f0c0ce;fill-opacity:1;stroke:none;stroke-width:0.499999;stroke-linecap:butt;stroke-linejoin:round;stroke-miterlimit:11.7;stroke-dasharray:none;stroke-opacity:1"
         d="m 133.49469,144.4253 c -1.25823,1.88966 0.82292,2.82749 2.512,2.82309 2.42813,-0.006 4.35196,-0.0574 6.39392,0.58911 3.37022,-3.98172 -1.01695,-4.83429 -4.2106,-5.42499 -1.66751,0.66752 -3.06,1.44452 -4.69532,2.01279 z" /><path
         id="path79"
         style="fill:#f0c0ce;fill-opacity:1;stroke:none;stroke-width:0.499999;stroke-linecap:butt;stroke-linejoin:round;stroke-miterlimit:11.7;stroke-dasharray:none;stroke-opacity:1"
         d="m 135.17056,128.76268 c -2.47272,1.34348 -5.83085,3.46325 -6.74171,9.11779 -0.19763,1.22692 0.80371,0.73402 2.29619,0.55552 -0.33744,0.20451 5.58654,-2.61741 5.58654,-2.61741 2.28644,-3.92598 1.4854,-5.17387 -1.14102,-7.0559 z" /><path
         id="path81"
         style="fill:#f0c0ce;fill-opacity:1;stroke:none;stroke-width:0.499999;stroke-linecap:butt;stroke-linejoin:round;stroke-miterlimit:11.7;stroke-dasharray:none;stroke-opacity:1"
         d="m 136.77563,135.61549 c 0,0 -4.67893,1.75838 -5.90558,2.8205 -2.49863,2.16349 -0.59718,6.93629 2.81946,5.92161 1.74844,-0.51926 5.87052,-2.42849 8.27754,-3.4928 -0.75635,-1.91681 -1.77034,-3.7893 -5.19142,-5.2493 z" /><path
         id="path12"
         style="fill:none;fill-opacity:1;stroke:#7c8c98;stroke-width:0.5;stroke-linecap:round;stroke-linejoin:round;stroke-miterlimit:11.7;stroke-dasharray:none;stroke-opacity:1"
         d="m 140.48858,162.92184 c 23.53457,13.34475 30.47441,8.85443 18.02323,-16.33909 v -6.45772 c 0,-0.82595 -0.39752,-2.0357 -0.82985,-2.73924 -4.04472,-6.58197 -2.84229,-13.15249 -6.976,-16.56277 -8.58298,-7.0809 -22.76756,-2.19459 -22.76612,1.93124 6.7e-4,1.9041 17.7266,1.10314 17.7266,3.88598 0,2.2221 -5.24418,-0.71697 -10.407,2.07454 -2.48042,1.34115 -5.82377,3.45733 -6.8305,9.16553 -0.5349,3.03289 6.54523,-2.32729 11.49017,-3.53035 4.38418,-1.06663 5.74733,-0.28352 5.74733,-0.28352 0,0 -3.41744,-2.16499 -14.75549,4.3453 -0.74614,0.42843 -1.46451,1.49102 -1.36592,2.34353 0.1268,1.09651 0.5764,2.30978 1.63508,3.22976 0.64723,0.56244 1.97732,0.60585 2.77543,0.28412 3.87901,-1.56371 8.1027,-4.08639 11.26801,-3.52038 -3.56611,-0.64846 -7.79837,2.33668 -11.72904,3.67675 -0.63369,0.9517 -0.43256,1.63977 0.21902,2.18559 0.52175,0.43707 1.61036,0.63909 2.2929,0.6373 3.42657,-0.009 5.84939,-0.1066 9.01614,1.79225 1.109,0.024 1.98492,0.55679 2.24659,1.24652 l -3.81971,-0.85304" /><path
         style="fill:#386b93;fill-opacity:1;stroke:none;stroke-width:0.5;stroke-linejoin:round;stroke-miterlimit:11.7;stroke-dasharray:none;stroke-opacity:1"
         d="m 147.09254,149.51646 c 5.28635,1.54072 11.58697,0.46553 11.41923,-6.16238 4.29088,2.70796 1.36272,4.62101 2.58659,6.70831 2.28655,3.8997 3.51997,6.34861 -3.67841,11.59653 -2.90123,2.11512 -10.59742,-1.9268 -10.59742,-1.9268 -0.48894,-2.46539 0.17791,-3.38351 0.40978,-4.03786 0.45823,-1.2931 -3.96554,-6.17036 -0.13977,-6.1778 z"
         id="path17" /><path
         style="fill:#7c8c98;fill-opacity:1;fill-rule:nonzero;stroke:none;stroke-width:0.5;stroke-linejoin:round;stroke-miterlimit:11.7;stroke-dasharray:none;stroke-opacity:1"
         d="m 148.59269,160.71295 c 0.38452,1.97433 1.1895,3.86157 2.41143,5.66164 0.49319,0.72636 1.10035,1.33859 1.52857,1.72871 0.28829,0.26266 0.36314,0.19341 0.14658,-0.13168 -0.31823,-0.47773 -0.79022,-1.18347 -1.26146,-1.87785 -1.18745,-1.74927 -1.96361,-3.57287 -2.33434,-5.4764 z"
         id="path20" /><path
         id="path24"
         style="fill:#114f6b;fill-opacity:1;stroke:none;stroke-width:0.5;stroke-linejoin:round;stroke-miterlimit:11.7;stroke-dasharray:none;stroke-opacity:1"
         d="m 158.51177,143.35404 c 0.0117,0.46234 0.18505,1.28536 0.30541,1.29346 2.92217,0.97992 0.34252,3.98519 1.69137,5.80947 3.49633,4.7287 1.18306,7.15249 -3.23185,10.48876 -0.43256,-1.75829 -1.69355,-6.33809 -2.09341,-8.85269 -2.83132,0.86342 -6.05183,0.9448 -9.48056,-0.49609 0.49008,1.49381 1.78841,3.36714 1.52963,4.09742 -0.23187,0.65435 -0.89874,1.57261 -0.4098,4.038 0,0 7.73199,4.18858 10.53011,1.97404 7.68441,-6.08174 5.57686,-7.18013 3.74593,-11.64471 -1.22387,-2.0873 1.70447,-4.00016 -2.58641,-6.70812 z m -1.95388,5.10977 c -2.24871,1.95233 -6.06694,2.04318 -9.46558,1.05265 -1.39642,0.003 -1.6938,0.20013 -1.53065,1.08933 1.13646,-1.19065 2.77823,0.0989 5.87354,0.0393 2.67417,-0.0515 4.73258,-0.74328 5.12269,-2.18126 z" /><path
         style="fill:none;fill-opacity:1;fill-rule:nonzero;stroke:#7c8c98;stroke-width:0.5;stroke-linejoin:round;stroke-miterlimit:11.7;stroke-dasharray:none;stroke-opacity:1"
         d="m 147.09254,149.51646 c 5.28635,1.54072 11.58697,0.46553 11.41923,-6.16238 4.29088,2.70796 1.36272,4.62101 2.58659,6.70831 2.28655,3.8997 3.51997,6.34861 -3.67841,11.59653 -2.90123,2.11512 -10.59742,-1.9268 -10.59742,-1.9268 -0.48894,-2.46539 0.17791,-3.38351 0.40978,-4.03786 0.45823,-1.2931 -3.96554,-6.17036 -0.13977,-6.1778 z"
         id="path25" /><path
         id="path83-8"
         style="fill:#f0c0ce;fill-opacity:1;stroke:none;stroke-width:0.499999;stroke-linecap:butt;stroke-linejoin:round;stroke-miterlimit:11.7;stroke-dasharray:none;stroke-opacity:1"
         d="m 38.432414,128.03121 c -0.09614,0.004 -0.192593,0.0151 -0.289388,0.0326 -1.938968,0.34995 -5.90549,10.88075 0.153479,12.29227 4.20337,0.97923 2.800005,3.17608 0.619084,2.44533 -3.704064,-1.24111 -7.558387,-1.91174 -9.187553,1.19528 -1.438861,2.74409 2.204,6.29367 2.204,6.29367 -2.645207,2.44172 -0.14264,8.52006 2.842203,12.32586 -0.457968,3.8774 -0.333869,9.082 1.479497,9.078 1.349412,-0.003 3.69825,-3.78498 4.959387,-6.4673 1.824934,-0.46509 3.815062,-0.59333 3.770312,-4.87257 1.901571,-1.37278 3.546454,-2.74584 4.524272,-4.11862 1.353446,-0.4447 2.706771,-0.88906 4.060217,-1.33376 7.97615,-0.41543 15.579715,-0.0719 22.617224,-2.71457 0.204003,-3.02338 -0.514006,-6.00459 -1.648478,-8.60929 l -7.047632,-0.39326 c 4.540069,-5.17333 -1.09518,-6.63696 -3.189986,-6.49676 -3.116241,0.20856 -5.234773,3.44747 -7.772652,5.56865 -3.619855,-1.73563 -6.2399,-4.16823 -9.745142,-4.58215 -2.696797,-3.69067 -5.368441,-9.77494 -8.348844,-9.64334 z" /><path
         id="path83"
         style="fill:#f5ebed;fill-opacity:1;stroke:none;stroke-width:0.499999;stroke-linecap:butt;stroke-linejoin:round;stroke-miterlimit:11.7;stroke-dasharray:none;stroke-opacity:1"
         d="m 38.432414,128.03121 c -2.025441,0.0843 -5.972508,11.72593 -0.115238,12.05818 3.633381,0.2061 4.625426,-3.61276 3.994071,-8.12302 0,0 2.688958,4.3292 4.046265,6.00636 2.788337,0.82015 5.787982,2.20408 9.862447,4.74906 l -0.172599,-0.70125 c -3.376519,-1.71244 -5.917353,-3.95055 -9.266102,-4.34599 -2.696797,-3.69067 -5.368441,-9.77494 -8.348844,-9.64334 z m 27.159066,8.56227 c -1.968389,-0.0448 -4.719086,1.19517 -8.133871,4.82761 1.986674,4.67897 7.98334,3.05073 10.031429,1.76372 2.766918,-1.73873 1.860275,-6.50578 -1.897558,-6.59133 z m -21.499463,4.49792 c -0.887248,-0.009 -1.805429,0.18529 -2.68149,0.66456 0,0 0,1.65791 -2.495455,1.04593 -3.794037,-0.93044 -7.558387,-1.91175 -9.187553,1.19527 -1.438861,2.74409 2.204,6.29316 2.204,6.29316 -2.645207,2.44172 -0.142639,8.52058 2.842204,12.32638 -0.457968,3.8774 -0.33387,9.08148 1.479496,9.07748 1.349412,-0.003 3.69825,-3.78498 4.959387,-6.4673 1.169099,-0.29795 2.405845,-0.45749 3.132109,-1.65882 0.930513,-3.42606 0.337596,-7.02502 0.502295,-10.5363 3.74669,-3.35188 4.683861,-5.87633 4.433837,-8.5323 -0.142842,-1.51739 -2.527087,-3.38029 -5.18883,-3.40806 z" /><path
         id="path16"
         style="fill:#eea1b7;fill-opacity:1;stroke:none;stroke-width:0.5;stroke-linecap:round;stroke-linejoin:round;stroke-miterlimit:11.7;stroke-dasharray:none;stroke-opacity:1"
         d="m 75.592702,146.65586 c 12.102951,2.41673 -0.137676,6.3727 -8.138938,7.88923 3.835309,-2.23764 7.716018,-6.41045 8.138938,-7.88923 z" /><path
         id="path89"
         style="fill:none;fill-opacity:1;stroke:#6f6f6f;stroke-width:0.499999;stroke-linecap:butt;stroke-linejoin:round;stroke-miterlimit:11.7;stroke-dasharray:none;stroke-opacity:1"
         d="m 79.981509,150.4186 v 0 c -8.070589,4.56269 -16.981518,3.99208 -26.414028,4.48336 -1.353446,0.4447 -2.706893,0.88941 -4.060339,1.33411 -0.977818,1.37278 -2.622809,2.74556 -4.52438,4.11834 0.04475,4.27924 -1.945381,4.40732 -3.770315,4.87241 -1.261137,2.68232 -3.610002,6.46469 -4.959414,6.46754 -1.813366,0.004 -1.937091,-5.20036 -1.479123,-9.07776 -2.984843,-3.8058 -5.487446,-9.88431 -2.842239,-12.32603 0,0 -3.643046,-3.54944 -2.204185,-6.29353 1.629166,-3.10702 5.608674,-2.76111 9.187586,-1.19528 2.731967,1.19528 4.200455,-1.92976 -0.524958,-2.67697 -6.144864,-0.97166 -2.186768,-11.71094 -0.2478,-12.06089 3.097442,-0.55904 5.854808,5.80089 8.638599,9.61062 3.505242,0.41392 6.124961,2.84675 9.744816,4.58238 2.537879,-2.12118 4.65641,-5.35991 7.772651,-5.56847 2.094806,-0.1402 7.730335,1.32321 3.190266,6.49654 l 7.058109,0.3737" /><path
         style="fill:none;fill-opacity:1;stroke:#6f6f6f;stroke-width:0.5;stroke-linecap:round;stroke-linejoin:round;stroke-miterlimit:11.7;stroke-dasharray:none;stroke-opacity:1"
         d="m 49.208797,142.46837 c 0.264818,4.54035 0.05634,6.52772 -5.126953,11.2793"
         id="path84" /><path
         style="fill:none;fill-opacity:1;stroke:#6f6f6f;stroke-width:0.5;stroke-linecap:round;stroke-linejoin:round;stroke-miterlimit:11.7;stroke-dasharray:none;stroke-opacity:1"
         d="m 53.298139,147.10876 c -1.99692,1.47552 -3.646174,3.37596 -5.152937,5.45056"
         id="path85" /><path
         style="fill:none;fill-opacity:1;stroke:#6f6f6f;stroke-width:0.499999;stroke-linecap:round;stroke-linejoin:round;stroke-miterlimit:11.7;stroke-dasharray:none;stroke-opacity:1"
         d="m 39.118954,153.91173 c -0.632314,0.44205 -1.272764,0.87854 -1.1756,1.70713 0.494047,4.2131 0.972601,6.63475 -2.301314,6.96009 -1.042442,0.0113 -1.501136,-0.8836 -2.016567,-1.63374"
         id="path86" /><path
         style="fill:none;fill-opacity:1;stroke:#6f6f6f;stroke-width:0.499999;stroke-linecap:round;stroke-linejoin:round;stroke-miterlimit:11.7;stroke-dasharray:none;stroke-opacity:1"
         d="m 31.931672,150.29057 c 5.003955,3.85381 13.714619,1.66393 5.04616,-8.06862"
         id="path87" /><path
         style="fill:#6f6f6f;fill-opacity:1;fill-rule:nonzero;stroke:none;stroke-width:0.5;stroke-linecap:round;stroke-linejoin:round;stroke-miterlimit:11.7;stroke-dasharray:none;stroke-opacity:1"
         d="m 42.353259,138.15147 c 0.34525,-0.60204 0.515272,-1.24556 0.561835,-1.84803 0.04493,-0.58129 -0.106239,-1.53412 -0.342147,-2.06723 -0.186377,-0.42118 -0.374418,-0.63654 -0.374418,-0.63654 0,0 0.135572,0.22944 0.255317,0.63567 0.164657,0.55858 0.207216,1.52001 0.100829,2.09343 -0.09163,0.49385 -0.267703,1.00197 -0.548834,1.47851 -0.296201,0.50208 -0.97602,1.1794 -1.44732,1.52405 -0.02556,0.0187 -0.05112,0.0371 -0.07666,0.0553 -0.475853,0.33839 -1.198642,0.71475 -1.594119,0.82278 -0.169279,0.0353 -0.169279,0.0353 -0.169279,0.0353 -0.01729,0.002 -0.01729,0.002 -0.01729,0.002 -0.01329,8.9e-4 -0.01329,8.9e-4 -0.01329,8.9e-4 -0.0099,3.2e-4 -0.0099,3.2e-4 -0.0099,3.2e-4 -0.0071,-1e-5 -0.0071,-1e-5 -0.0071,-1e-5 h 0 c -0.0048,-1.8e-4 -0.0048,-1.8e-4 -0.0048,-1.8e-4 h 0 c 0.04587,0.0237 0.04587,0.0237 0.04587,0.0237 l -0.295434,0.40338 c 0.248045,0.073 0.248045,0.073 0.248045,0.073 1.077704,-0.33861 1.564162,-0.57486 2.043528,-0.90841 0.07015,-0.0488 0.140495,-0.0995 0.210767,-0.15207 0.467607,-0.34974 1.144508,-1.02991 1.434507,-1.53561 z"
         id="path88"
         transform="translate(-0.17401456,-0.34802913)" /><path
         style="fill:none;stroke:#6f6f6f;stroke-width:0.5;stroke-linecap:butt;stroke-linejoin:round;stroke-miterlimit:11.7;stroke-dasharray:none;stroke-opacity:1"
         d="m 67.488645,143.18497 c -12.928404,4.0982 -3.030822,6.21217 -13.921163,11.71699"
         id="path5" /><path
         id="path9"
         style="display:inline;fill:none;fill-opacity:1;stroke:#7c8c98;stroke-width:0.5;stroke-linejoin:round;stroke-miterlimit:11.7;stroke-dasharray:none;stroke-opacity:1"
         d="m 105.67107,127.81959 c 0.0157,-0.51749 0.0157,-0.51796 0,0 z m -5.2e-4,0.0176 c -0.88277,0.3929 -1.81294,0.80929 -2.76985,1.2423 l 2.21433,5.77277 2.62516,0.4408 5.6069,-4.12274 c -0.35994,-0.55719 -0.77273,-1.15507 -1.24799,-1.79938 l -0.48886,-0.66249 c -1.14667,0.0145 -2.34293,0.0435 -1.84433,2.98432 l -2.95021,2.84944 c 0.17273,-1.14182 0.0609,-2.31516 -0.33538,-3.5202 l 0.93896,-0.56999 z" /></g><g
       id="g94"
       style="display:inline;opacity:1"><path
         id="path3"
         style="display:inline;opacity:1;fill:#f5ebed;fill-opacity:1;stroke:none;stroke-width:0.5;stroke-linejoin:round;stroke-miterlimit:11.7;stroke-dasharray:none;stroke-opacity:1"
         d="M 114.63814 42.631268 A 38.982067 38.982067 0 0 0 75.656024 81.613384 A 38.982067 38.982067 0 0 0 108.50311 120.10923 L 108.50311 123.02171 C 107.8829 122.93971 107.27072 122.85083 106.66757 122.75403 L 105.40356 123.85163 C 105.71226 125.20514 105.71483 126.43625 105.67073 127.83692 L 107.41946 130.45175 L 106.4805 131.02174 C 106.87674 132.22678 106.98861 133.40012 106.81588 134.54194 L 109.76609 131.6925 C 109.26749 128.75171 110.46375 128.72263 111.61042 128.70818 L 112.09876 129.37068 L 112.09928 129.37068 C 115.88862 128.9422 118.43896 126.02573 120.58351 123.96325 C 119.4106 123.90815 118.24176 123.84919 117.08295 123.78187 L 117.08295 120.5185 A 38.982067 38.982067 0 0 0 153.62026 81.613384 A 38.982067 38.982067 0 0 0 114.63814 42.631268 z " /><path
         id="path15"
         style="opacity:1;fill:#eb9caa;fill-opacity:1;stroke:none;stroke-width:0.499999;stroke-linecap:round;stroke-linejoin:round;stroke-miterlimit:11.7;stroke-opacity:1"
         d="m 108.50311,120.10923 v 2.91248 c -0.62021,-0.082 -1.23239,-0.17088 -1.83554,-0.26768 l -1.26401,1.0976 c 0.3087,1.35351 0.31127,2.58462 0.26717,3.98529 l 1.62936,2.43654 c -0.16504,-1.87425 -0.0546,-3.70651 1.31775,-5.34902 3.57891,0.45268 5.90027,-0.49151 8.46511,-1.83193 v -2.57401 c -0.81393,0.0512 -1.62927,0.0769 -2.44481,0.077 -2.05463,-1.6e-4 -4.10603,-0.16275 -6.13503,-0.48627 z m -2.02261,10.91251 c 0.34558,1.13353 0.36313,1.38316 0.40204,2.05879 l 0.9555,0.47439 1.14361,-1.10468 c -2.10398,1.35066 -2.50115,-1.4285 -2.50115,-1.4285 z" /><ellipse
         style="display:inline;opacity:1;fill:#f5ebed;fill-opacity:1;stroke:none;stroke-width:0.59486;stroke-linecap:square;stroke-linejoin:round;stroke-miterlimit:11.7;stroke-dasharray:none;stroke-opacity:1"
         id="path54"
         transform="rotate(-76.198973)"
         cx="-75.397354"
         cy="102.53579"
         rx="13.31149"
         ry="13.844693" /><ellipse
         style="display:inline;opacity:1;fill:#f5ebed;fill-opacity:1;stroke:none;stroke-width:0.59486;stroke-linecap:square;stroke-linejoin:round;stroke-miterlimit:11.7;stroke-dasharray:none;stroke-opacity:1"
         id="path55"
         transform="matrix(-0.23855086,-0.97113,-0.97113,0.23855086,0,0)"
         cx="-134.05573"
         cy="-117.6907"
         rx="13.31149"
         ry="13.844693" /><circle
         style="display:inline;opacity:1;fill:#bc6e80;fill-opacity:1;stroke:none;stroke-width:0.569714;stroke-linecap:round;stroke-linejoin:round;stroke-miterlimit:11.7;stroke-dasharray:none;stroke-opacity:1"
         id="path71"
         cx="142.28712"
         cy="112.89019"
         r="0.77504081" /><path
         id="path63"
         style="opacity:1;mix-blend-mode:normal;fill:#eb9caa;fill-opacity:0.636856;stroke-width:0.499999;stroke-linecap:round;stroke-linejoin:round;stroke-miterlimit:11.7;filter:url(#filter63)"
         d="m 154.19937,102.1979 -13.45189,0.87333 -5.00538,7.85947 c 1.45777,1.63191 3.31306,2.88757 5.40432,3.65765 l 3.30833,-3.2985 c 2.13186,0.41892 3.98288,0.13575 5.49372,-0.99787 1.17595,-0.92167 1.14384,-2.08496 1.63039,-3.14451 z" /><path
         id="path76"
         style="opacity:1;fill:#eea1b7;fill-opacity:1;stroke-width:0.499999;stroke-linecap:round;stroke-linejoin:round;stroke-miterlimit:11.7;filter:url(#filter59)"
         d="m 87.352989,106.21626 0.838709,2.61896 a 13.844693,13.31149 13.801027 0 1 -2.001429,1.23352 l -2.17351,-3.29076 z"
         transform="matrix(-1,0,0,1,225.91094,3.9015657)" /><ellipse
         style="display:inline;opacity:1;fill:none;fill-opacity:1;stroke:#7c8183;stroke-width:0.235724;stroke-linecap:square;stroke-linejoin:round;stroke-miterlimit:11.7;stroke-dasharray:none;stroke-opacity:1"
         id="ellipse56"
         transform="matrix(0.34161567,-0.93983974,-0.94118861,-0.33788164,0,0)"
         cx="-51.488384"
         cy="-172.56737"
         rx="4.5310097"
         ry="6.3868976" /><circle
         style="display:inline;opacity:1;fill:#bc6e80;fill-opacity:1;stroke:none;stroke-width:0.569714;stroke-linecap:round;stroke-linejoin:round;stroke-miterlimit:11.7;stroke-dasharray:none;stroke-opacity:1"
         id="circle71"
         cx="83.811455"
         cy="109.29305"
         r="0.77504081" /><path
         id="path56"
         style="opacity:1;mix-blend-mode:normal;fill:#eb9caa;fill-opacity:0.650406;stroke-width:0.499999;stroke-linecap:round;stroke-linejoin:round;stroke-miterlimit:11.7;filter:url(#filter60)"
         d="m 77.20614,86.125492 -6.152596,2.741435 c -1.410773,1.581597 -2.407588,3.470215 -2.908866,5.511292 -0.649332,2.642996 -0.440481,5.429487 0.598413,7.984011 l 6.122624,-0.22738 c 0.636876,3.75533 3.143366,6.38316 7.32255,5.09736 l 2.200899,3.56103 c 1.330724,-0.24251 2.613539,-0.674 3.807003,-1.28054 z" /><ellipse
         style="display:inline;opacity:1;fill:none;fill-opacity:1;stroke:#7c8183;stroke-width:0.235724;stroke-linecap:square;stroke-linejoin:round;stroke-miterlimit:11.7;stroke-dasharray:none;stroke-opacity:1"
         id="ellipse57"
         transform="matrix(-0.34161567,-0.93983974,0.94118861,-0.33788164,0,0)"
         cx="-124.25092"
         cy="41.844044"
         rx="4.5310097"
         ry="6.3868976" /><path
         id="path59"
         style="opacity:1;mix-blend-mode:normal;fill:#eea1b7;fill-opacity:1;stroke-width:0.499999;stroke-linecap:round;stroke-linejoin:round;stroke-miterlimit:11.7;filter:url(#filter59)"
         d="m 87.352808,106.21626 -2.957443,0.24132 1.942001,3.83388 a 13.844693,13.31149 13.801027 0 0 2.041219,-0.87333 z" /><path
         style="display:inline;opacity:1;mix-blend-mode:normal;fill:#e7d0dc;fill-opacity:0.655827;stroke-width:0.499999;stroke-linecap:round;stroke-linejoin:round;stroke-miterlimit:11.7;filter:url(#filter35)"
         d="m 105.4037,104.17647 12.44336,0.98824 14.32941,10.80289 15.07059,-10.88525 -10.95294,-19.270586 -24.78824,2.882355 0.74118,5.188233 z"
         id="path31" /><path
         style="opacity:1;fill:#ddbac3;fill-opacity:0.336043;stroke-width:0.499999;stroke-linecap:round;stroke-linejoin:round;stroke-miterlimit:11.7;filter:url(#filter47)"
         d="m 110.08821,97.527379 9.37451,-0.131392 1.31112,8.711223 -12.66553,2.20491 z"
         id="path47" /><path
         id="path159"
         style="opacity:1;fill:#ee9eae;fill-opacity:1;stroke:none;stroke-width:0.499999;stroke-linecap:round;stroke-linejoin:round;stroke-miterlimit:11.7;stroke-dasharray:none;stroke-opacity:1"
         d="m 138.82563,104.52695 c -0.23293,-0.0582 -6.92929,5.82342 -6.92929,5.82342 l 5.8813,-0.17467 6.45645,-3.19153 a 38.982067,38.982067 0 0 0 5.2e-4,-5.2e-4 38.982067,38.982067 0 0 0 1.6061,-2.00349 c -2.67062,-0.1592 -6.8569,-0.41367 -7.01508,-0.45321 z" /><path
         style="opacity:1;fill:#eb9caa;fill-opacity:1;stroke:none;stroke-width:0.499999;stroke-linecap:round;stroke-linejoin:round;stroke-miterlimit:11.7;stroke-dasharray:none;stroke-opacity:1"
         d="m 102.54712,104.46879 c 0,0 -5.02685,2.42788 -7.710788,2.33514 -4.702231,-0.16248 -13.194616,-5.01383 -13.194616,-5.01383 l 1.455809,-4.250961 z"
         id="path157" /><path
         style="display:inline;opacity:1;fill:#ffffff;fill-opacity:1;stroke:none;stroke-width:0.499999;stroke-linecap:round;stroke-linejoin:round;stroke-miterlimit:11.7;stroke-dasharray:none;stroke-opacity:1"
         d="m 104.77008,92.200729 c 0.94927,4.388487 -0.0808,10.467041 -1.63274,11.993931 -2.23524,2.14744 -11.647279,2.47094 -15.325808,-0.29113 -3.84541,-2.88737 -5.341591,-6.350605 -8.314834,-9.098558 l 0.211329,-4.980156 z"
         id="path82" /><path
         style="display:inline;opacity:1;fill:#ffffff;fill-opacity:1;stroke:#7c8c98;stroke-width:0.5;stroke-linecap:square;stroke-linejoin:round;stroke-miterlimit:11.7;stroke-dasharray:none;stroke-opacity:1"
         d="m 114.20283,115.99156 c 2.83689,0.24157 5.22303,0.99223 5.59042,0.71558 0.38306,-0.28845 0.0825,-1.93384 -0.76328,-2.60073 -1.10207,-0.869 -3.7656,-0.37774 -5.65547,-0.42846 -1.56972,-0.0422 -4.66518,-1.15293 -5.70414,-0.71927 -0.62598,0.26128 -0.31291,2.18186 0.0545,2.64344 0.57874,0.59254 3.01848,0.0949 6.47791,0.38944 z"
         id="path64" /><path
         id="path65"
         style="display:inline;opacity:1;fill:#ffffff;fill-opacity:1;stroke:#7c8c98;stroke-width:0.499999;stroke-linecap:square;stroke-linejoin:round;stroke-miterlimit:11.7;stroke-dasharray:none;stroke-opacity:1"
         d="m 98.929879,107.01001 c 0,0 -5.019432,2.26287 -7.711157,2.58382 -1.146835,0.13674 -3.004476,-0.14118 -4.031796,-0.30386 a 38.982067,38.982067 0 0 0 3.956865,3.42976 l 8.442378,-2.51095 z" /><path
         id="path66-1"
         style="display:inline;opacity:1;fill:#ffffff;fill-opacity:1;stroke:#7c8c98;stroke-width:0.499999;stroke-linecap:square;stroke-linejoin:round;stroke-miterlimit:11.7;stroke-dasharray:none;stroke-opacity:1"
         d="m 135.26968,111.07029 -9.02374,4.75785 1.40612,2.53061 a 38.982067,38.982067 0 0 0 9.28057,-4.7682 z" /><ellipse
         style="display:inline;opacity:1;fill:#bc6e80;fill-opacity:1;stroke:none;stroke-width:0.658505;stroke-linecap:square;stroke-linejoin:round;stroke-miterlimit:11.7;stroke-dasharray:none;stroke-opacity:1"
         id="path66"
         cx="113.46508"
         cy="105.82046"
         rx="0.98425406"
         ry="0.75866812" /><path
         style="display:inline;opacity:1;fill:#bc6e80;fill-opacity:1;stroke:#7c8c98;stroke-width:0.5;stroke-linecap:round;stroke-linejoin:round;stroke-miterlimit:11.7;stroke-dasharray:none;stroke-opacity:1"
         d="m 110.71677,105.30781 3.14676,-3.95883"
         id="path67" /><path
         style="display:inline;opacity:1;fill:#bc6e80;fill-opacity:1;stroke:#7c8c98;stroke-width:0.5;stroke-linecap:round;stroke-linejoin:round;stroke-miterlimit:11.7;stroke-dasharray:none;stroke-opacity:1"
         d="m 113.414,104.23472 3.14676,-3.95883"
         id="path68" /><path
         style="display:inline;opacity:1;fill:#bc6e80;fill-opacity:1;stroke:#7c8c98;stroke-width:0.5;stroke-linecap:round;stroke-linejoin:round;stroke-miterlimit:11.7;stroke-dasharray:none;stroke-opacity:1"
         d="m 115.23738,104.62625 3.14676,-3.95883"
         id="path69" /><path
         style="display:inline;opacity:1;fill:#bc6e80;fill-opacity:1;stroke:#7c8c98;stroke-width:0.5;stroke-linecap:round;stroke-linejoin:round;stroke-miterlimit:11.7;stroke-dasharray:none;stroke-opacity:1"
         d="m 117.06076,104.94528 3.14676,-3.95883"
         id="path70" /><path
         id="path153"
         style="opacity:1;fill:#c18376;fill-opacity:1;stroke:none;stroke-width:0.499999;stroke-linecap:round;stroke-linejoin:round;stroke-miterlimit:11.7;stroke-dasharray:none;stroke-opacity:1"
         d="m 79.707796,89.825008 -0.21084,4.980058 c 0.484989,0.448239 0.930413,0.915598 1.353406,1.396297 7.814619,-0.882672 15.961893,-0.508875 24.178888,1.565211 0.18877,-1.969953 0.13758,-3.73068 -0.25942,-5.566 z" /><circle
         style="display:inline;opacity:1;fill:#99cac8;fill-opacity:1;stroke:none;stroke-width:0.631026;stroke-linecap:round;stroke-linejoin:round;stroke-miterlimit:11.7;stroke-dasharray:none;stroke-opacity:1"
         id="path73"
         cx="96.568459"
         cy="96.873901"
         r="8.002347" /><path
         id="circle76"
         style="display:inline;opacity:1;fill:#e4e8f3;fill-opacity:1;stroke:none;stroke-width:0.631026;stroke-linecap:round;stroke-linejoin:round;stroke-miterlimit:11.7;stroke-dasharray:none;stroke-opacity:1"
         d="m 89.000252,99.473515 c 2.160514,6.290075 10.224356,6.970185 13.846188,2.401405 l -2.69441,-1.24592 c -2.29128,2.18296 -6.315158,1.87141 -8.069279,-1.155485 z" /><path
         id="path74"
         style="display:inline;opacity:1;fill:#344c54;fill-opacity:1;stroke:none;stroke-width:0.499999;stroke-linecap:round;stroke-linejoin:round;stroke-miterlimit:11.7;stroke-dasharray:none;stroke-opacity:1"
         d="M 96.568266,88.871578 A 8.002347,8.002347 0 0 0 88.6349,95.825159 c 5.576574,-0.02156 10.874129,0.607209 15.89205,1.886189 a 8.002347,8.002347 0 0 0 0.0439,-0.837674 8.002347,8.002347 0 0 0 -8.002614,-8.002096 z" /><path
         style="display:inline;opacity:1;fill:#ffffff;fill-opacity:1;stroke:none;stroke-width:0.499999;stroke-linecap:round;stroke-linejoin:round;stroke-miterlimit:11.7;stroke-dasharray:none;stroke-opacity:1"
         d="m 99.636248,93.078735 c -0.648572,-0.04569 -0.78778,0.209408 -1.120365,0.359719 -0.332584,0.15031 -2.094969,0.304694 -2.199038,2.641293 -0.0977,2.193705 1.321393,3.368598 2.128025,3.295274 2.50095,-0.227339 2.46838,-6.20632 1.191378,-6.296286 z"
         id="path72" /><path
         style="opacity:1;fill:#eb9caa;fill-opacity:1;stroke:none;stroke-width:0.499999;stroke-linecap:round;stroke-linejoin:round;stroke-miterlimit:11.7;stroke-dasharray:none;stroke-opacity:1"
         d="m 126.13121,107.32217 c 0.23293,0.34939 5.24091,3.14455 5.24091,3.14455 l 6.63848,-2.62046 0.0582,-2.09636 -11.41354,-0.3494 z"
         id="path158" /><path
         style="display:inline;opacity:1;fill:#ffffff;fill-opacity:1;stroke:none;stroke-width:0.499999;stroke-linecap:round;stroke-linejoin:round;stroke-miterlimit:11.7;stroke-dasharray:none;stroke-opacity:1"
         d="m 123.07097,95.877773 c -2.19574,4.009126 -1.43664,8.136687 0.1153,9.663577 2.23524,2.14744 8.83543,5.19211 16.46389,1.22631 4.26664,-2.21808 8.32228,-9.114516 11.29552,-11.862469 l -3.73396,-2.866578 z"
         id="path92" /><circle
         style="display:inline;opacity:1;fill:#99cac8;fill-opacity:1;stroke:none;stroke-width:0.631026;stroke-linecap:round;stroke-linejoin:round;stroke-miterlimit:11.7;stroke-dasharray:none;stroke-opacity:1"
         id="circle77"
         cx="-131.70901"
         cy="100.13774"
         transform="scale(-1,1)"
         r="8.002347" /><path
         id="path77"
         style="display:inline;opacity:1;fill:#e4e8f3;fill-opacity:1;stroke:none;stroke-width:0.631026;stroke-linecap:round;stroke-linejoin:round;stroke-miterlimit:11.7;stroke-dasharray:none;stroke-opacity:1"
         d="m 139.27722,102.73736 c -2.16051,6.29007 -10.22436,6.97018 -13.84619,2.4014 l 2.69441,-1.24592 c 2.29128,2.18296 6.31516,1.87141 8.06928,-1.15548 z" /><path
         style="display:inline;opacity:1;fill:#f0c0ce;fill-opacity:1;stroke:none;stroke-width:0.499999;stroke-linecap:round;stroke-linejoin:round;stroke-miterlimit:11.7;stroke-dasharray:none;stroke-opacity:1"
         d="m 85.399998,86.882353 11.694118,-18.035294 7.823534,15.399999 15.64705,8.070588 10.54118,5.600001 27.8353,-6.42353 L 115.62353,40.188234 73.129412,59.95294 Z"
         id="path152" /><path
         id="path154"
         style="opacity:1;fill:#c18376;fill-opacity:1;stroke:none;stroke-width:0.499999;stroke-linecap:round;stroke-linejoin:round;stroke-miterlimit:11.7;stroke-dasharray:none;stroke-opacity:1"
         d="m 147.21169,92.038826 -24.14065,3.839043 c -0.76334,1.393766 -1.16954,2.801679 -1.30948,4.109826 v 5.17e-4 l 0.0605,0.287838 c 7.64087,-1.851082 20.78379,-1.387196 25.37094,-0.543089 1.48421,-1.86696 2.56058,-3.725695 3.75287,-4.827643 z" /><path
         id="path78"
         style="display:inline;opacity:1;fill:#344c54;fill-opacity:1;stroke:none;stroke-width:0.499999;stroke-linecap:round;stroke-linejoin:round;stroke-miterlimit:11.7;stroke-dasharray:none;stroke-opacity:1"
         d="m 131.7092,92.135417 c 4.53926,-2.6e-5 7.40728,2.973992 7.93337,6.953581 -5.57657,-0.02156 -10.87413,0.607209 -15.89205,1.886192 -0.0293,-0.27827 -0.0439,-0.55788 -0.0439,-0.83768 1.4e-4,-4.419576 3.46332,-8.002067 8.00258,-8.002093 z" /><path
         style="display:inline;opacity:1;fill:#ffffff;fill-opacity:1;stroke:none;stroke-width:0.499999;stroke-linecap:round;stroke-linejoin:round;stroke-miterlimit:11.7;stroke-dasharray:none;stroke-opacity:1"
         d="m 129.10107,96.946132 c 3.59879,0.168539 3.06137,5.944198 0.73153,5.692728 -2.49676,-0.26949 -2.01029,-5.752615 -0.73153,-5.692728 z"
         id="path80" /><path
         style="display:inline;opacity:1;fill:#344c54;fill-opacity:1;stroke:none;stroke-width:0.499999;stroke-linecap:round;stroke-linejoin:round;stroke-miterlimit:11.7;stroke-dasharray:none;stroke-opacity:1"
         d="m 147.0958,101.89599 c 0.61835,-2.137123 1.38527,-4.51501 1.20712,-6.05475 -13.58971,-1.102837 -19.3867,1.325402 -26.7865,3.027371 0.29164,-1.959978 1.27682,-3.878126 3.37226,-4.94343 9.04622,-4.599023 18.45286,-4.303526 27.74453,-2.605839 -1.24534,3.520616 -1.36648,7.433523 -5.53741,10.576648 z"
         id="path91" /><path
         id="path163"
         style="opacity:1;fill:#cfeaea;fill-opacity:1;stroke:none;stroke-width:0.499999;stroke-linecap:round;stroke-linejoin:round;stroke-miterlimit:11.7;stroke-dasharray:none;stroke-opacity:1"
         d="m 151.51005,94.200424 c -3.61753,5.135665 -7.78826,9.855976 -13.37334,13.515976 2.97314,0.16837 5.65775,-1.56673 8.36538,-3.15072 l -2.09651,4.54185 c 2.20462,-1.7002 4.44982,-3.35937 6.34018,-5.37384 l 2.61327,-1.0852 4.65295,-3.726391 -6.4208,-3.773413 z" /><path
         id="path144"
         style="display:inline;opacity:1;fill:#94b2b2;fill-opacity:1;stroke:none;stroke-width:0.25;stroke-linecap:round;stroke-linejoin:round;stroke-miterlimit:11.7;stroke-dasharray:none;stroke-opacity:1"
         d="m 151.2357,94.538563 c -1.35804,1.835656 -1.81087,1.651429 -2.78455,3.706925 3.92126,0.160695 4.25749,2.980372 4.63353,4.741132 l 4.65295,-3.726382 c -1.63993,-6.516865 -6.50193,-4.721675 -6.50193,-4.721675 z" /><path
         id="path162"
         style="display:inline;opacity:1;fill:#cfeaea;fill-opacity:1;fill-rule:nonzero;stroke:none;stroke-width:0.499999;stroke-linecap:round;stroke-linejoin:round;stroke-miterlimit:11.7;stroke-dasharray:none;stroke-opacity:1"
         d="m 102.45814,21.096323 c -4.851873,-0.862092 -6.897875,0.168662 -10.496009,3.561347 -4.187714,-0.923714 -8.602193,-2.846634 -23.635675,6.83009 6.325858,-2.551728 10.92522,-3.098972 16.274975,-2.753837 -23.046244,18.303307 -33.655406,30.315252 -31.802193,47.148544 2.75389,-7.710892 5.011108,-13.848545 11.67784,-19.352824 -2.189159,6.333786 -4.826934,13.186682 -4.30723,19.921781 -2.564482,5.681236 -5.017746,9.94907 -8.604126,13.79089 3.642297,-1.07771 6.559921,-2.581253 9.997839,-5.498373 2.062045,6.36145 5.020487,12.457983 10.897009,16.051269 -2.339425,-3.573366 -4.498669,-6.349384 -4.218795,-10.715724 1.261649,2.688462 3.897594,4.565459 5.806869,6.827442 0.71088,4.755592 0.82022,9.544172 -0.361685,13.966822 1.721069,-3.16858 2.687285,-6.96617 3.832187,-10.61487 3.994964,5.57488 5.8368,6.87695 12.569272,8.69881 -5.385946,-4.54609 -6.957006,-6.54587 -8.579131,-14.919785 0,0 2.237257,3.718269 4.555406,5.607739 -2.348837,-8.336754 -1.376332,-4.133256 -2.645697,-8.296658 3.711403,-3.948625 1.819606,-12.713196 14.567148,-29.321488 0.07432,0.827524 0.489646,2.02618 1.117245,3.5233 -0.946465,0.628734 -1.938995,1.264398 -2.979147,1.90686 1.196827,-0.235474 2.358964,-0.479003 3.487126,-0.730188 3.635072,8.222164 11.801192,23.479637 8.420152,36.67838 2.71988,-3.815908 2.36582,-4.70997 2.98927,-8.980718 4.24504,7.218868 9.11468,10.841578 14.27468,11.147358 -3.55265,-1.77299 -4.80721,-5.10561 -5.63317,-8.182452 l 5.4581,-5.006253 c 0,0 0.93362,-0.328654 1.62574,-0.248564 3.27282,-8.00678 7.08872,-14.235983 7.96256,-24.457204 3.23811,5.899899 9.32098,20.207936 8.09972,23.376862 1.22947,-3.1456 1.78638,-8.039546 2.72132,-11.182955 2.72791,10.863899 7.42237,19.656846 13.03857,22.877706 -2.57886,-2.80042 -3.5234,-5.675022 -4.56015,-8.545532 3.4909,4.65687 7.12973,10.390162 14.71529,11.764542 -2.81489,-2.77014 -4.59493,-7.041897 -5.72251,-10.956983 1.39546,-1.86754 2.87402,-4.340723 3.80645,-6.594113 4.86825,3.25976 6.4854,6.736184 8.39234,10.193364 0.66625,-6.695631 -5.38311,-15.920212 -5.66597,-15.845578 0.54144,-1.333116 1.90981,-3.406954 2.13987,-4.50368 0.46879,-0.137824 0.94924,0.132346 1.48686,0.01184 6.02419,3.574126 8.72437,4.579725 17.61744,1.511154 -11.02289,-1.102979 -17.36744,-9.480141 -21.09635,-18.986156 2.14012,-0.949471 4.82557,-1.685274 7.32775,-2.946881 -2.77712,0.597195 -5.54773,1.040347 -7.90209,1.27974 -2.29126,-6.947525 -4.8604,-17.740001 -15.5066,-26.387363 9.22653,-1.063287 16.02783,-1.87716 23.30355,-8.562708 -9.75236,2.634339 -26.88301,2.822386 -40.95826,-2.471469 2.10409,-2.795365 3.71274,-5.99538 5.3899,-10.416829 -2.58796,4.132849 -5.13295,7.338831 -8.28795,9.707287 -11.36153,-3.096512 -18.21866,-3.631878 -25.74293,-0.634304 6.51467,-6.58212 15.53723,-8.059068 24.31324,-11.2965257 C 121.2883,8.6780817 108.84467,12.557274 102.45814,21.096323 Z" /><path
         style="opacity:1;fill:#94b2b2;fill-opacity:1;stroke:none;stroke-width:0.25;stroke-linecap:round;stroke-linejoin:round;stroke-miterlimit:11.7;stroke-dasharray:none;stroke-opacity:1"
         d="m 87.788236,80.335294 c 1.819717,-8.338725 5.631394,-15.862558 9.841174,-23.22353 l 0.687009,5.073247 c -4.427752,8.275099 -8.705054,10.72988 -10.528183,18.150283 z"
         id="path132" /><path
         style="opacity:1;fill:#94b2b2;fill-opacity:1;stroke:none;stroke-width:0.25;stroke-linecap:round;stroke-linejoin:round;stroke-miterlimit:11.7;stroke-dasharray:none;stroke-opacity:1"
         d="m 104.23586,76.400807 4.13449,10.656515 10.13243,6.347324 1.10641,4.600353 4.90846,-4.863825 z"
         id="path133" /><path
         style="opacity:1;fill:#94b2b2;fill-opacity:1;stroke:none;stroke-width:0.25;stroke-linecap:round;stroke-linejoin:round;stroke-miterlimit:11.7;stroke-dasharray:none;stroke-opacity:1"
         d="m 82.311763,76.505881 2.182355,12.517647 -1.426729,-0.894022 z"
         id="path134" /><path
         style="opacity:1;fill:#94b2b2;fill-opacity:1;stroke:none;stroke-width:0.25;stroke-linecap:round;stroke-linejoin:round;stroke-miterlimit:11.7;stroke-dasharray:none;stroke-opacity:1"
         d="m 78.688233,76.505881 c -0.968845,3.67756 -1.116244,7.433969 0.123532,11.323529 l -0.905883,0.288237 c -1.232361,-6.195192 -0.752206,-7.837915 0.782351,-11.611766 z"
         id="path135" /><path
         style="opacity:1;fill:#94b2b2;fill-opacity:1;stroke:none;stroke-width:0.25;stroke-linecap:round;stroke-linejoin:round;stroke-miterlimit:11.7;stroke-dasharray:none;stroke-opacity:1"
         d="m 72.285294,84.802941 c -0.85853,-2.484951 -2.776334,-2.349182 -1.750001,1.111764 0.346431,1.168215 1.641444,1.688072 1.914706,2.779411 0.489837,1.956285 -0.679411,6.011765 -0.679411,6.011765 l 2.264707,4.488235 0.247057,-5.47647 c 0,0 -1.00021,-6.029405 -1.997058,-8.914705 z"
         id="path136" /><path
         style="opacity:1;fill:#94b2b2;fill-opacity:1;stroke:none;stroke-width:0.25;stroke-linecap:round;stroke-linejoin:round;stroke-miterlimit:11.7;stroke-dasharray:none;stroke-opacity:1"
         d="M 53.457273,74.537373 C 55.08064,66.610896 57.151909,54.081474 66.617778,52.583788 64.905135,54.49724 65.633791,55.00946 64.166069,57.012419 58.498133,61.169866 55.973891,67.657201 53.457273,74.537373 Z"
         id="path137" /><path
         style="opacity:1;fill:#94b2b2;fill-opacity:1;stroke:none;stroke-width:0.25;stroke-linecap:round;stroke-linejoin:round;stroke-miterlimit:11.7;stroke-dasharray:none;stroke-opacity:1"
         d="m 145.79642,80.013355 c 2.40694,-4.40856 3.47243,-6.81301 3.39479,-13.395577 3.0669,0.388215 6.20145,-0.615964 9.26835,-1.780611 -4.84584,-0.416207 -9.61636,-1.166042 -14.31156,-2.249503 0.83526,6.771899 1.45084,10.51972 1.64842,17.425691 z"
         id="path138" /><path
         style="opacity:1;fill:#94b2b2;fill-opacity:1;stroke:none;stroke-width:0.25;stroke-linecap:round;stroke-linejoin:round;stroke-miterlimit:11.7;stroke-dasharray:none;stroke-opacity:1"
         d="m 163.31216,95.001045 c -1.21676,-3.583286 -1.84748,-7.221143 -1.89216,-10.913571 1.76669,1.57267 3.4581,3.220613 5.69861,4.319458 z"
         id="path139" /><path
         style="opacity:1;fill:#94b2b2;fill-opacity:1;stroke:none;stroke-width:0.25;stroke-linecap:round;stroke-linejoin:round;stroke-miterlimit:11.7;stroke-dasharray:none;stroke-opacity:1"
         d="m 169.84498,82.754718 -4.52746,-5.729171 6.00197,-0.62474 2.15222,1.862069 -2.10929,0.481462 z"
         id="path140" /><path
         style="display:inline;opacity:1;fill:#94b2b2;fill-opacity:1;stroke:#000000;stroke-width:0.499999;stroke-linecap:round;stroke-linejoin:round;stroke-miterlimit:11.7;stroke-dasharray:none;stroke-opacity:1"
         d="m 69.173089,94.506824 5.18677,2.389492 -5.806998,-6.827594"
         id="path97" /><path
         id="path141"
         style="opacity:1;fill:#94b2b2;fill-opacity:1;stroke:none;stroke-width:0.25;stroke-linecap:round;stroke-linejoin:round;stroke-miterlimit:11.7;stroke-dasharray:none;stroke-opacity:1"
         d="m 128.94097,10.112044 c -8.2504,0.686087 -18.82335,4.243991 -26.48283,10.984279 l -4.533368,-0.217494 c -2.172307,0.725791 -3.268888,1.618674 -5.763472,3.713985 -0.208586,-0.09482 -0.423243,-0.183242 -0.644922,-0.264583 -3.353722,0.26634 -4.383596,0.92294 -5.580021,4.476729 l -1.023711,-0.08165 c -4.436952,3.035873 -6.255892,4.551661 -10.259838,8.312671 L 92.705969,31.91123 c -5.306339,2.831244 -8.415441,7.730558 -11.950691,12.228711 5.13554,-4.492425 10.115336,-9.233356 16.841866,-11.180196 2.477426,2.075353 3.197106,2.05777 4.775416,-0.815454 l 12.76615,5.228622 c -2.56614,-4.304343 -7.12782,-6.143946 -10.9027,-8.955526 5.50608,-2.55253 6.55404,-1.359579 6.55404,-1.359579 0,0 10.86964,0.02773 12.65701,-1.610749 l 10.13807,-4.832813 c -5.95659,-1.344695 -11.41288,-2.690516 -16.74885,-2.429826 -2.7846,0.136042 -5.53642,0.709621 -8.30957,1.949235 5.33485,-4.555589 11.64792,-8.30257 20.41426,-10.021611 z" /><path
         style="display:inline;opacity:1;fill:#94b2b2;fill-opacity:1;stroke:none;stroke-width:0.0550227;stroke-linecap:round;stroke-linejoin:round;stroke-miterlimit:11.7;stroke-dasharray:none;stroke-opacity:1"
         d="m 85.138262,63.301945 c -0.0036,-0.114633 0.521665,-2.13542 0.878728,-3.380885 0.966031,-3.36958 1.90341,-5.625931 2.586347,-6.225556 0.249495,-0.219059 0.343401,-0.225121 0.470985,-0.03041 0.223618,0.341284 -0.05564,1.117309 -1.51036,4.197149 -1.015776,2.150531 -1.464289,3.157985 -2.057265,4.621035 -0.201206,0.49643 -0.367001,0.86483 -0.368435,0.818663 z"
         id="path130" /><path
         style="display:inline;opacity:1;fill:#94b2b2;fill-opacity:1;stroke:none;stroke-width:0.499999;stroke-linecap:round;stroke-linejoin:round;stroke-miterlimit:11.7;stroke-opacity:1"
         d="m 122.62353,51.058823 c 0.65827,-1.811585 -0.69323,-6.856932 1.66765,-8.544118 0.49036,-0.350435 1.49202,-0.276172 1.79117,0.247058 1.48724,2.601236 -1.50512,7.733268 -3.45882,8.29706 z"
         id="path60" /><path
         id="path90"
         style="display:inline;opacity:1;fill:#344c54;fill-opacity:1;stroke:none;stroke-width:0.499999;stroke-linecap:round;stroke-linejoin:round;stroke-miterlimit:11.7;stroke-dasharray:none;stroke-opacity:1"
         d="m 88.130021,85.820085 c -1.744452,-0.03685 -3.492137,0.02951 -5.23999,0.1757 l 0.865063,5.26066 c 11.143283,-0.452531 16.547086,1.696043 23.276096,3.24373 -0.29164,-1.959978 -1.27696,-3.878064 -3.3724,-4.943368 -5.09033,-2.587882 -10.294896,-3.626154 -15.528769,-3.736722 z m -9.735781,0.826923 c -1.221043,0.1665 -1.261848,0.08119 -2.480011,0.303757 1.245337,3.520616 1.366714,7.433495 5.537647,10.576615 -0.618346,-2.137118 -1.385319,-4.515187 -1.207162,-6.054927 0.139575,-0.03223 -2.289231,-3.381104 -1.850474,-4.825445 z" /><path
         id="path145"
         style="opacity:1;fill:#fff4e9;fill-opacity:1;stroke:none;stroke-width:0.499999;stroke-linecap:round;stroke-linejoin:round;stroke-miterlimit:11.7;stroke-dasharray:none;stroke-opacity:1"
         d="m 155.56673,34.446476 c -5.2557,2.480783 -10.61015,4.803802 -16.21658,6.723621 0.51527,2.063939 1.20291,4.041918 2.91145,5.509224 8.49024,1.867896 16.89077,4.861109 25.35453,7.807276 -1.99598,-6.052403 -4.98944,-13.518439 -12.0494,-20.040121 z M 74.908089,36.72334 C 67.322606,43.282164 61.669768,49.127186 57.951501,54.939282 67.588213,51.84032 77.150214,48.57848 87.496985,47.028654 l 2.530078,-4.612638 C 85.084078,40.717664 80.007005,38.75423 74.908089,36.72334 Z m 62.054091,5.576404 c -1.51287,0.418707 -3.00521,0.8454 -5.05189,1.050582 l 1.15032,3.235461 c 1.63051,-0.07881 3.31396,-0.05179 4.99815,-0.02325 -0.25693,-1.399234 -0.56755,-2.809134 -1.09658,-4.262789 z m -45.944997,0.850594 -1.339453,3.726904 2.736784,0.05788 1.403532,-3.202389 c -0.98857,-0.0843 -1.922097,-0.278482 -2.800863,-0.582393 z m 13.713627,0.145581 0.0584,3.435449 1.83426,0.203752 v -3.784782 z m 4.22171,-0.145581 -0.38034,3.620967 c 0.96152,-0.118665 1.92306,0.01281 2.88458,0.163815 l 0.524,-3.784782 z m -14.475599,0.804085 -0.08217,2.631364 2.270662,-0.116272 0.524516,-2.329574 c -1.096987,0.334898 -1.913094,0.06401 -2.713012,-0.185518 z" /><path
         id="path164"
         style="display:inline;opacity:1;fill:none;fill-opacity:1;stroke:#000000;stroke-width:0.499999;stroke-linecap:round;stroke-linejoin:round;stroke-miterlimit:11.7;stroke-dasharray:none;stroke-opacity:1"
         d="m 151.51007,94.200225 c -3.61753,5.135664 -7.78837,9.856355 -13.37345,13.516355 2.97314,0.16837 5.65784,-1.56701 8.36547,-3.151 l -2.09637,4.54212 c 2.79458,-2.15517 5.65451,-4.24499 7.77401,-7.07523" /><path
         id="path2"
         style="display:inline;opacity:1;fill:none;fill-opacity:1;stroke:#000000;stroke-width:0.499999;stroke-linecap:butt;stroke-linejoin:round;stroke-miterlimit:11.7;stroke-dasharray:none;stroke-opacity:1"
         d="m 157.68431,99.012811 -1.10591,0.929598 m -0.48207,0.405221 -2.7374,2.30098 -2.61316,1.08508" /><path
         style="display:inline;opacity:1;fill:#94b2b2;fill-opacity:1;stroke:none;stroke-width:0.499999;stroke-linecap:round;stroke-linejoin:round;stroke-miterlimit:11.7;stroke-opacity:1"
         d="m 118.26985,87.75611 0.26205,-7.628435 1.04817,-1.019065 0.40763,-8.734848 c 0.0528,-1.131784 -1.80449,-0.85099 -1.83432,0.174698 z"
         id="path106" /><path
         style="display:inline;opacity:1;fill:#94b2b2;fill-opacity:1;stroke:none;stroke-width:0.499999;stroke-linecap:round;stroke-linejoin:round;stroke-miterlimit:11.7;stroke-dasharray:none;stroke-opacity:1"
         d="m 129.62353,28.329411 c -3.88262,4.141398 -6.37428,2.174656 -6.42647,1.616461 0.6534,-1.743499 4.7477,-1.599199 6.42647,-1.616461 z"
         id="path110" /><path
         id="path102"
         style="display:inline;opacity:1;fill:#0d0a0b;fill-opacity:1;fill-rule:nonzero;stroke:none;stroke-width:0.499999;stroke-linecap:round;stroke-linejoin:round;stroke-miterlimit:11.7;stroke-dasharray:none;stroke-opacity:1"
         d="m 99.259058,42.416016 c 0,0 -0.452298,1.058279 -0.861447,2.738334 -0.440141,1.80732 -0.718457,3.848359 -0.84801,6.28127 -0.192014,3.561539 -0.02579,7.40925 0.748275,10.581266 -12.644323,16.994375 -10.259479,18.650371 -12.199255,24.071916 -0.959887,2.687284 -2.368331,5.249809 -2.368331,5.249809 0,0 1.838799,-2.290076 2.839103,-5.081344 1.196593,-3.344398 0.786015,-5.191416 3.000334,-9.813871 1.446499,-3.01961 4.018302,-7.234342 8.889896,-13.805876 0.0863,0.310483 0.178752,0.6135 0.278019,0.907955 0.220346,0.653606 0.4562,1.312442 0.704867,1.976107 0.143508,-0.0954 0.285967,-0.190687 0.427364,-0.285771 -0.232149,-0.622077 -0.45283,-1.238831 -0.658874,-1.850016 -1.115155,-3.307853 -1.384021,-7.799373 -1.161687,-11.923303 0.136595,-2.502663 0.274278,-4.356531 0.592729,-6.257499 0.282676,-1.687413 0.617017,-2.788977 0.617017,-2.788977 z m 40.615092,3.121773 c 0,0 1.44552,1.55748 3.76153,3.766695 2.33535,2.227662 5.50261,5.013623 9.25835,7.135482 6.20405,3.501088 12.16669,4.082481 20.88916,2.594673 -4.72718,2.289046 -9.0483,4.093889 -13.56455,4.825546 -4.87541,0.789843 -10.07545,0.554663 -16.21864,-1.892391 -0.0291,-0.118768 -0.0584,-0.237523 -0.0884,-0.356051 l -0.48473,0.122473 c 1.58426,6.272599 2.04027,12.852134 1.88568,17.798914 -0.10307,3.297853 -0.48763,5.884669 -0.95602,7.115845 -0.10204,0.268234 -0.19588,0.538138 -0.28267,0.805635 0.0547,-0.451173 0.10625,-0.902796 0.15348,-1.353922 0.24566,-2.333883 0.25413,-4.349328 0.0734,-6.125725 -0.16918,-1.662737 -0.46715,-2.73575 -0.46715,-2.73575 0,0 0.17502,1.099716 0.21807,2.75177 0.0478,1.832888 -0.0737,3.679109 -0.32143,6.058028 -0.0996,0.951858 -0.22025,1.905227 -0.34519,2.860291 -0.0886,-0.595538 -0.20688,-1.276658 -0.36536,-2.032951 -0.75571,-3.606423 -4.20368,-13.244842 -7.53132,-19.307865 l -0.4687,0.0987 c -0.86184,10.080831 -5.46201,16.720006 -8.74366,24.680665 -0.43096,-0.05032 -0.844,-0.100005 -1.24178,-0.151412 -6.06498,-3.240883 -10.03932,-6.979951 -12.931,-12.138278 -3.12756,-5.57432 -4.71495,-11.870076 -4.71495,-11.870076 0,0 1.08819,6.418092 4.27881,12.114506 2.75088,4.907168 6.4823,8.560923 11.97394,11.69541 -0.16231,-0.02581 -0.32259,-0.05257 -0.48059,-0.0801 -2.57523,-0.704069 -4.59179,-1.434014 -6.2606,-2.254126 -0.79841,-0.469935 -1.64318,-1.034592 -2.57038,-1.719792 -0.72897,-0.538617 -1.46335,-1.076641 -2.10272,-1.542542 -2.34174,-2.266571 -4.25006,-5.241183 -7.44967,-9.464538 -1.48132,-3.533745 -3.06841,-6.998287 -4.37958,-10.326502 -0.1641,0.03716 -0.32898,0.07375 -0.494544,0.110588 1.285634,3.274676 2.830774,6.65823 4.281914,10.100159 l -0.0786,0.05994 c 0.0779,0.102134 0.15512,0.203639 0.23151,0.304375 0.85936,2.050688 1.68108,4.121213 2.39055,6.201171 2.3335,6.84118 3.45192,13.761119 0.76068,20.408056 -0.3207,0.79234 -0.68896,1.56459 -1.10278,2.31252 0.52576,-0.68125 1.03848,-1.37246 1.53789,-2.07326 2.46122,-3.45301 3.11591,-5.058075 3.67781,-8.460463 0.0316,-0.191609 0.058,-0.383803 0.0801,-0.573091 4.17884,6.880054 8.82754,10.520094 13.95832,10.824144 a 11.798778,11.798778 0 0 0 1.25316,0.007 10.278157,10.278157 0 0 1 -1.12655,-0.48059 c -2.96943,-1.48193 -4.49232,-4.03793 -5.3852,-6.657986 -0.49298,-1.442268 -0.86053,-3.031573 -1.13275,-4.157886 -0.2791,-1.154825 -0.48782,-1.918746 -0.48782,-1.918746 0,0 0.0857,0.786935 0.24184,1.964738 0.15416,1.162859 0.39396,2.766508 0.90589,4.273124 0.80876,2.373226 2.14144,4.741556 4.57698,6.337076 -4.59354,-0.76736 -8.83676,-4.41748 -12.72945,-11.041181 0.053,-0.872732 0.0263,-1.533757 0.0263,-1.533757 0,0 -0.22946,0.753643 -0.44648,1.719792 l -0.0372,0.0217 c 0.008,0.01348 0.0153,0.02685 0.0233,0.04031 -0.077,0.347218 -0.15167,0.720169 -0.21342,1.09399 -0.19043,2.541395 -1.31974,4.531346 -2.51509,6.678656 1.90045,-6.240981 0.75142,-12.66119 -1.39216,-18.945607 -0.50645,-1.484752 -1.06909,-2.964434 -1.6614,-4.434355 1.89594,2.56071 3.30857,4.512131 4.78885,6.234762 l -0.0408,-0.02946 c 0,0 0.0739,0.07357 0.078,0.07803 1.76216,2.043481 3.60946,3.708219 6.30039,5.031734 2.21802,1.302048 4.10703,1.901052 6.38152,2.299601 0.80055,0.218731 1.65343,0.434601 2.5647,0.649573 a 91.756031,91.756031 0 0 0 2.07533,0.464054 53.288155,53.288155 0 0 1 -1.37873,-0.664042 c 0.0322,0.0037 0.0648,0.0076 0.0971,0.01137 l 0.25994,-0.153996 c 3.16689,-7.747644 7.71993,-14.365529 8.77207,-24.179919 1.52805,2.901734 3.06024,6.484325 4.31757,9.800952 1.36409,3.59825 2.40691,6.893716 2.77399,8.645467 0.24764,1.181785 0.39579,2.175049 0.48472,2.940906 0.0534,0.459514 0.0853,0.836871 0.10439,1.123962 0.0115,0.172255 0.0186,0.312267 0.0227,0.417546 0.006,0.157918 0.006,0.157636 0.006,0.235128 l 0.49816,0.02635 c 0.0237,-0.221917 0.0238,-0.221407 0.0822,-0.60203 0.0389,-0.253748 0.0929,-0.576725 0.16537,-0.947746 0.18106,-0.927552 0.47695,-2.155219 0.93018,-3.346565 1.23887,-3.25645 1.69453,-14.076341 -0.67593,-24.238831 12.62924,5.056708 20.84916,1.365037 31.47508,-3.89847 0.56679,-0.280756 1.13227,-0.563764 1.69705,-0.848527 -0.61725,0.132734 -1.23581,0.258995 -1.8557,0.378788 -4.81776,0.931025 -8.78022,1.290643 -12.34395,0.961699 -3.56374,-0.328943 -6.73167,-1.343006 -9.98078,-3.176551 -3.7036,-2.087613 -6.9145,-4.750257 -9.33535,-6.884851 -2.39561,-2.112328 -3.93051,-3.58221 -3.93051,-3.58221 z" /><path
         style="opacity:1;fill:#000000;fill-opacity:1;stroke:none;stroke-width:0.499999;stroke-linecap:round;stroke-linejoin:round;stroke-miterlimit:11.7;stroke-dasharray:none;stroke-opacity:1"
         d="m 85.193888,78.031313 14.824842,12.476351 a 4.6749952,4.6749952 0 0 0 5.78526,0.185417 l 5.24505,-3.868688 -2.85133,-0.618479 C 101.29064,89.30712 91.004321,81.783537 85.193888,78.031313 Z"
         id="path155" /><path
         style="opacity:1;fill:#000000;fill-opacity:1;stroke:none;stroke-width:0.499999;stroke-linecap:round;stroke-linejoin:round;stroke-miterlimit:11.7;stroke-dasharray:none;stroke-opacity:1"
         d="m 118.56101,85.193888 2.50399,1.630505 18.63434,1.048181 c 0,0 5.06621,-1.863434 4.71682,-1.921666 -0.34939,-0.05823 -23.2347,-1.979898 -23.2347,-1.979898 z"
         id="path156" /><path
         id="path11"
         style="display:inline;fill:#114f6b;fill-opacity:1;stroke:#0b3447;stroke-width:0.5;stroke-linejoin:round;stroke-miterlimit:11.7;stroke-dasharray:none;stroke-opacity:1;opacity:1"
         d="m 104.5807,128.32343 c -0.55514,0.2484 -1.12464,0.50477 -1.70378,0.76688 l 0.99323,9.17515 11.1435,-4.0597 c -0.40679,-0.9211 -0.97809,-1.99447 -1.82676,-3.28093 l -7.429,5.18521 z m 2.23604,10.63088 c -5.30876,6.33627 -10.639768,12.6051 -15.103992,19.57865 -0.416235,0.65019 -0.14721,1.36947 0.589628,1.5999 l 5.336109,1.66915 a 1.9125873,1.9125873 0 0 0 2.13682,-0.7276 l 3.658175,-5.21622 a 6.973102,6.973102 0 0 0 1.17874,-2.91765 z" /><path
         id="rect12"
         style="display:inline;fill:#3a90af;fill-opacity:1;stroke:none;stroke-width:0.5;stroke-linejoin:round;stroke-miterlimit:11.7;stroke-dasharray:none;stroke-opacity:1;opacity:1"
         d="m 104.23085,132.79706 c -1.00298,0.50028 -2.20895,3.94551 -1.72603,5.00072 -2.15602,2.27947 -6.019041,7.83077 -6.957721,8.19432 -0.938674,0.36357 -9.772945,1.78165 -21.003364,-2.10478 -3.469834,-0.76937 -6.104813,0.7746 -5.64152,1.50327 2.786852,4.38319 12.245595,11.54616 18.625226,12.23285 12.798169,-0.0846 15.226019,-8.55859 19.677349,-18.1622 1.15634,-0.48947 2.27967,-3.94883 1.84178,-4.94232 -0.3378,-0.76634 -3.99883,-2.17359 -4.81572,-1.72186 z" /><path
         style="display:inline;fill:none;fill-opacity:1;stroke:#7bbe7e;stroke-width:0.5;stroke-linecap:butt;stroke-linejoin:round;stroke-miterlimit:11.7;stroke-dasharray:none;stroke-opacity:1;opacity:1"
         d="m 102.58789,137.5625 6.45852,-3.04377"
         id="path18" /><path
         id="path19"
         style="baseline-shift:baseline;display:inline;overflow:visible;fill:#7bbe7e;fill-opacity:1;stroke:none;stroke-width:0.5;stroke-linecap:square;stroke-linejoin:round;stroke-miterlimit:11.7;stroke-dasharray:none;stroke-opacity:1;enable-background:accumulate;stop-color:#000000;opacity:1"
         d="m 106.36353,140.748 -6.609929,0.35708 c -0.253543,0.32269 -0.506697,0.64569 -0.759993,0.96858 l 7.166852,-0.31384 c 0.0765,-0.17047 0.15323,-0.34106 0.23046,-0.51263 z m -1.90609,4.75009 -8.288116,-0.01 c -0.265149,0.26968 -0.870391,0.83731 -0.870391,0.83731 l 8.705547,0.10936 c 0.22319,-0.3305 0.45532,-0.55263 0.45296,-0.93688 z m -35.344159,-0.24223 c 0.06444,0.58885 0.326233,0.93864 0.891748,1.6148 l 18.349268,10.73526 c 0.307924,-0.0112 1.157552,-0.48113 1.157552,-0.48113 z m 11.803776,0.62429 15.091553,9.91193 c 0.378863,-0.13642 0.56295,-0.36872 0.772563,-0.6904 l -14.018266,-9.14001 c -0.6082,-0.16822 -1.227443,-0.20473 -1.84585,-0.0815 z m 9.998324,0.64945 c -0.712016,-0.0641 -1.216638,-0.04 -1.826157,0.25759 l 11.848286,4.77207 c 0.24418,-0.25645 0.36517,-0.55647 0.49196,-0.87953 z" /><path
         id="path28"
         style="display:inline;fill:none;fill-opacity:1;stroke:#0b3447;stroke-width:0.5;stroke-linejoin:round;stroke-miterlimit:11.7;stroke-dasharray:none;stroke-opacity:1;opacity:1"
         d="m 104.97912,132.66735 c -0.31195,-0.007 -0.57342,0.033 -0.74827,0.12971 -1.00298,0.50028 -2.20895,3.94551 -1.72603,5.00072 -2.15604,2.27957 -6.019063,7.83078 -6.957721,8.19432 -0.938674,0.36357 -9.772945,1.78165 -21.003364,-2.10478 -3.469834,-0.76937 -6.104813,0.7746 -5.64152,1.50327 2.786852,4.38319 12.245595,11.54616 18.625226,12.23285 12.798109,-0.0846 15.226059,-8.55863 19.677349,-18.1622 1.15633,-0.48953 2.27966,-3.94884 1.84178,-4.94232 -0.40669,-0.92264 -2.71567,-1.823 -4.06746,-1.85157 z" /><path
         style="display:inline;fill:none;fill-opacity:1;stroke:#0b3447;stroke-width:0.5;stroke-linecap:butt;stroke-linejoin:round;stroke-miterlimit:11.7;stroke-dasharray:none;stroke-opacity:1;opacity:1"
         d="m 102.50486,137.79779 4.69996,1.66346"
         id="path30" /><path
         id="path2-8"
         style="display:inline;opacity:1;fill:#e7edfb;fill-opacity:1;stroke:none;stroke-width:0.5;stroke-linejoin:round;stroke-miterlimit:11.7;stroke-dasharray:none;stroke-opacity:1"
         d="M 106.4159 122.51011 C 105.89816 122.49411 105.21806 122.61749 104.83719 122.8827 C 102.73261 124.3482 97.884107 128.79165 93.418247 132.9441 C 92.469827 133.82596 92.621561 134.03505 93.772231 133.44071 C 97.571201 131.47849 102.02566 129.45923 105.67073 127.83692 C 105.70563 126.72849 105.62044 125.66265 105.43043 124.59526 C 105.34693 124.12629 105.57422 123.52717 105.96322 123.25219 L 106.30118 123.01292 C 106.50339 122.86998 106.86565 122.78631 107.11043 122.82379 C 107.56975 122.89412 108.0342 122.96022 108.50311 123.02223 L 108.50311 122.73284 C 107.32788 122.61111 106.56805 122.51482 106.4159 122.51011 z M 120.20007 123.20413 C 119.15438 123.24669 118.10711 123.25885 117.08295 123.24909 L 117.08295 123.78239 C 117.85503 123.82724 118.63131 123.86822 119.41046 123.90693 C 120.05819 123.93913 120.20591 124.33007 119.74326 124.78543 C 117.76971 126.72791 115.4064 128.99673 112.09928 129.37068 C 116.77204 135.70542 115.40155 137.57618 117.21318 139.97158 C 117.90675 140.88864 118.93413 140.55069 119.26783 139.44758 C 122.45183 128.92241 122.01063 135.79267 124.27321 126.7419 C 123.50695 125.70456 122.43008 125.83327 121.85372 125.26705 C 121.40344 124.82468 121.32274 124.34803 121.08839 123.74466 C 120.96309 123.42209 120.54668 123.19002 120.20007 123.20413 z " /><path
         id="path7"
         style="display:inline;opacity:1;fill:none;fill-opacity:1;stroke:#7c8c98;stroke-width:0.5;stroke-linejoin:round;stroke-miterlimit:11.7;stroke-dasharray:none;stroke-opacity:1"
         d="M 108.50294 122.73304 C 107.3277 122.61132 106.56788 122.51506 106.41573 122.51035 L 106.41573 122.51035 C 105.89799 122.49435 105.21788 122.61773 104.83701 122.88294 C 102.73243 124.34844 97.88393 128.79189 93.41807 132.94434 C 92.46965 133.8262 92.62138 134.03529 93.77205 133.44095 C 97.57102 131.47873 102.02548 129.45947 105.67055 127.83716 C 105.70545 126.72873 105.62055 125.66265 105.43054 124.59526 C 105.34704 124.12629 105.57404 123.52715 105.96304 123.25217 L 106.30125 123.01308 C 106.50346 122.87014 106.86558 122.78623 107.11036 122.82371 C 107.56967 122.89404 108.03402 122.96001 108.50294 123.02202 " /><path
         id="path13"
         style="display:inline;opacity:1;fill:none;fill-opacity:1;stroke:#7c8c98;stroke-width:0.5;stroke-linejoin:round;stroke-miterlimit:11.7;stroke-dasharray:none;stroke-opacity:1"
         d="M 117.08278 123.78228 C 117.85485 123.82713 118.63129 123.8682 119.41044 123.90691 C 120.05817 123.93911 120.20583 124.33012 119.74318 124.78548 C 117.76963 126.72796 115.40622 128.99696 112.0991 129.37091 C 116.77186 135.70565 115.40132 137.57623 117.21295 139.97163 C 117.90652 140.88869 118.93425 140.55051 119.26795 139.4474 C 122.45195 128.92223 122.01045 135.7929 124.27303 126.74213 C 123.50677 125.70479 122.4299 125.83351 121.85354 125.26729 C 121.40326 124.82492 121.32257 124.34827 121.08822 123.7449 C 120.96292 123.42233 120.54651 123.19026 120.1999 123.20437 C 119.15421 123.24693 118.10694 123.25909 117.08278 123.24933 " /><path
         id="path75"
         style="display:inline;opacity:1;fill:none;fill-opacity:1;stroke:#214340;stroke-width:0.5;stroke-linecap:round;stroke-linejoin:round;stroke-miterlimit:11.7;stroke-opacity:1;stroke-dasharray:none"
         d="m 96.185398,28.329411 c -6.514894,-10.863089 -23.113611,0.477118 -27.937115,3.581902 9.72187,-3.921614 16.284685,-4.134721 25.855152,-1.523079 m 29.343625,-4.941175 c 9.22857,-2.396811 13.43724,-6.558802 18.2,-14.164706 -3.07729,8.112571 -5.92387,12.112959 -12.02353,17.047058 M 102.77647,27.011765 C 108.77924,15.115143 120.86057,13.142101 131.92941,9.0588234 118.11209,8.8746431 103.72551,13.298623 97.999999,30.388234 m 63.523721,57.424685 c 1.56063,6.932555 3.19291,13.797931 7.51095,18.145111 -7.58556,-1.37439 -11.22443,-7.107737 -14.71533,-11.7646 1.03675,2.870509 1.98136,5.745207 4.56022,8.54562 -6.47481,-3.713267 -10.12655,-13.10778 -13.0386,-22.877738 m 19.47656,-2.835765 c 5.27488,6.421235 10.22851,12.842436 10.19343,21.574818 -1.90694,-3.457178 -3.52409,-6.933675 -8.39234,-10.193433 -1.07299,2.593066 -2.45255,4.930658 -4.13868,7.012776 m 10.49178,-17.156832 -2.10929,0.481462 -1.51744,4.01038 M 61.874883,84.733102 c -3.437918,2.917129 -6.978025,4.91455 -10.620322,5.992263 3.58638,-3.84182 6.661812,-8.603349 9.226294,-14.284585 C 59.961151,69.705681 61.97691,63.346205 64.166069,57.012419 57.499337,62.516698 55.864318,68.161148 53.110428,75.87204 51.254895,59.017675 61.659334,47.05614 84.766193,28.713983 m 7.393841,-4.12008 c 3.564669,-3.340635 5.626117,-4.323756 10.542776,-3.418847 m 4.57634,-0.439076 c 7.86857,-3.089155 13.23463,-3.256806 26.07995,0.253673 m 2.81168,0.823691 c 14.04915,5.237471 31.32595,4.982562 41.04463,2.35732 -7.27572,6.685548 -14.07703,7.499415 -23.30356,8.562702 10.61412,8.621303 13.22038,19.437314 15.50661,26.387368 m 0.76282,2.170511 c 0.3051,0.79413 0.61956,1.509064 0.96108,2.130844 5.03952,9.175089 10.19878,15.813769 19.94679,16.351941 -8.18346,2.656435 -13.08894,2.033197 -18.96801,-2.492938 M 119.9888,33.517646 c -4.54253,-6.341176 -9.85369,-8.070588 -15.93347,-5.188235 m 3.82347,36.331429 c 6.01295,-3.490869 10.92786,-7.969973 14.74473,-13.437312 V 51.058823 M 103.84706,30.388234 c 2.50932,-2.058823 32.26892,12.549565 -7.411768,37.058825 C 142.37392,58.408717 137.24484,37.45127 118.34118,31.04706 m 11.2,25.364704 c 2.57072,16.556177 -0.66162,29.624777 -5.86183,35.887776 l 3.88536,-3.193658 -1.15811,3.760543 M 68.552861,90.068724 c -0.279874,4.366345 1.879609,7.142628 4.219034,10.715946 -6.31364,-3.860516 -9.258871,-10.6108 -11.343066,-17.474452 m 16.899637,-6.208029 c -0.115995,0.641497 -1.05885,6.227542 0.394208,10.752412 0.966492,3.009687 4.595565,9.288198 7.653238,11.780434 -11.584292,-29.138332 5.753196,-45.07576 2.669522,-46.357339 -2.03103,-0.844098 -5.548752,14.461462 -6.386676,21.563544 m -0.838256,19.186053 c 1.622125,8.373897 3.193185,10.373687 8.579131,14.919787 -6.732472,-1.82186 -8.574379,-3.12401 -12.569343,-8.69891 -1.144902,3.64871 -2.111047,7.44639 -3.832116,10.61497 2.273807,-8.50852 -0.231176,-18.371136 -2.605839,-26.748178 m 2.967524,12.781354 c -2.785451,-2.73724 -5.367712,-5.880862 -7.642706,-9.639017 m 58.092357,5.609127 c -1.84261,2.01053 -3.50457,3.551376 -4.98588,4.622538" /></g></g></svg>
