<?xml version="1.0" encoding="UTF-8"?>
<svg xmlns="http://www.w3.org/2000/svg" width="210" height="297">
<g transform="matrix(0.97,0,0,0.97,19.94,7.34)">
    <g>
      <g>
        <path
           style="fill:#856a65;stroke-width:0.25"
           d="m 91.11,227.12 c -6.40,0.25 -12.85,1.54 -18.49,3.44 13.31,10.14 35.20,12.61 45.91,6.13 -6.26,-7.48 -16.76,-9.98 -27.42,-9.57 z" />
        <path
           style="fill:#856a65;stroke-width:0.27"
           d="m 58.18,230.38 c -6.85,0.27 -13.76,1.65 -19.80,3.69 14.25,10.86 37.69,13.50 49.16,6.56 -6.70,-8.01 -17.94,-10.69 -29.36,-10.25 z" />
        <path
           style="fill:#fcebd3;stroke-width:0.25"
           d="m 89.95,225.71 4.52,10.09 c 4.97,0.74 10.54,0.41 14.37,-2.85 0.03,-0.03 -0.61,-7.05 -0.61,-7.05 z" />
        <path
           style="fill:#fcb3a2;stroke-width:0.50"
           d="m 89.94,225.71 2.26,5.05 c 2.94,0.14 9.72,1.20 10.95,2.99 0.37,0.53 0.69,1.09 0.99,1.67 1.71,-0.50 3.31,-1.29 4.69,-2.46 0.03,-0.03 -0.61,-7.05 -0.61,-7.05 z" />
        <path
           style="fill:#2c0d08;stroke:#2c0d08"
           d="m 114.83,236.35 c -6.71,3.18 -9.48,7.91 -18.53,5.51 l -0.28,0.27 c 0.53,1.84 -0.49,2.49 0.45,5.25 3.71,10.90 7.11,20.31 7.16,34.78 v 0.01 c 0.12,2.39 1.82,5.05 3.87,6.26 2.62,1.55 5.01,2.63 7.20,3.26 l 0.24,-0.32 c -0.78,-1.26 -1.41,-2.62 -1.93,-3.91 0.10,-0.12 5.07,-6.11 9.94,-7.10 4.53,0.42 7.09,1.38 7.28,1.46 -0.02,0.76 -0.04,1.49 -0.08,2.17 l 0.39,0.14 c 1.34,-1.71 3.17,-3.49 3.95,-6.17 l -0.01,-0.16 C 127.89,264.07 119.25,251.21 115.11,236.50 Z m -0.06,0.48 c 4.18,14.67 12.73,27.47 19.28,41.08 -0.69,2.27 -2.15,3.88 -3.43,5.45 0.02,-0.55 0.05,-1.09 0.06,-1.69 l -0.14,-0.21 c 0,0 -2.80,-1.10 -7.58,-1.54 l -0.06,0 c -4.91,0.98 -9.88,6.83 -10.31,7.35 l -0.03,0.22 c 0.46,1.15 1.07,2.37 1.75,3.54 -2.02,-0.63 -4.17,-1.56 -6.57,-2.98 -1.90,-1.12 -3.55,-3.72 -3.66,-5.91 0.13,-7.32 -0.26,-12.64 -1.57,-18.79 -1.18,-5.57 -3.22,-10.61 -5.62,-16.12 -1.03,-2.37 -0.02,-2.87 -0.43,-4.91 7.54,2.30 18.32,-5.50 18.32,-5.50 z" />
        <path
           style="fill:#36221e;stroke-width:0.44"
           d="m 64.12,240.92 c -0.03,-0.07 -0.06,-0.13 -0.08,-0.20 -0.32,1.13 2.84,45.19 3.20,46.32 2.35,0.81 4.11,3.21 5.75,5.22 -0.21,-1.54 -0.12,-3.21 -0.07,-4.80 0,0 3.97,-3.05 8.79,-2.76 4.82,0.28 6.64,1.76 10.28,3.55 -0.40,0.59 0,0.36 -0.38,0.88 0.47,0.20 0.80,0.41 0.76,0.63 1.58,-1.52 6.16,-10.55 5.11,-16.25 C 96.41,267.82 83.34,258.85 84.38,241.60 l -2.40,-0.31 -0.98,-0.13 c -5.53,-1.26 -11.29,-1.27 -16.88,-0.25 z" />
        <path
           style="fill:#fcb3a2;stroke-width:0.25"
           d="m 61.87,231.22 1.55,5.34 c 5.13,-4 12.64,-2.02 16.28,0.52 -0.02,-0.39 -0.05,-0.89 -0.09,-1.44 -5.07,-2.95 -11.29,-4.26 -17.74,-4.42 z" />
        <path
           style="fill:#36221e;stroke-width:0.44"
           d="m 114.90,236.56 -2.52,0.89 c -2.19,5.03 -8.84,6.95 -16.15,4.62 0.54,1.89 -0.48,2.52 0.45,5.24 3.71,10.89 7.12,20.34 7.18,34.85 0.11,2.29 1.79,4.92 3.76,6.09 2.60,1.54 4.98,2.62 7.15,3.24 -0.81,-1.31 -1.48,-2.74 -2.01,-4.06 0,0 5.15,-6.27 10.18,-7.28 4.76,0.43 7.52,1.52 7.52,1.52 -0.02,0.83 -0.05,1.61 -0.08,2.34 1.35,-1.73 3.15,-3.48 3.92,-6.10 -6.59,-13.73 -15.24,-26.59 -19.39,-41.35 z" />
        <path
           style="fill:#fff4e7;stroke-width:0.25"
           d="m 112.75,287.43 c 0,0 5.15,-6.27 10.18,-7.28 4.76,0.43 7.52,1.52 7.52,1.52 -0.26,11.64 -2.30,13.44 -6.71,14.63 -5.66,1.52 -9.15,-4.24 -11,-8.87 z" />
        <path
           style="fill:#ffd59b;stroke-width:0.31"
           d="m 62.85,237.03 c 0.09,1.39 0.74,2.65 1.26,3.90 6.10,-1.27 11.90,-0.81 17.86,0.37 l -0.40,-2.32 c -1.73,-3.19 -12.37,-7.66 -18.72,-1.95 z" />
        <path
           style="fill:#2c0d08;stroke-width:0.50"
           d="m 82.57,241.37 c 1.03,7.56 2.05,14.61 4.34,21.33 0.57,1.67 2.54,2.29 4.54,2.37 l 4.78,7.66 c 0.38,5.61 -0.81,10.53 -3.47,14.02 -5.81,-2.44 -13.77,-3.95 -19.74,-0.45 l -3.21,0.20 -3.40,-11.13 c 0.35,4.36 0.72,11.39 0.81,11.67 2.50,0.93 4.14,3.22 5.75,5.22 -0.27,-2.06 0.40,-3.12 0.57,-4.51 6.19,-4.33 13.56,-1.75 19.93,0.50 1.73,-2.83 4.20,-8.57 4.14,-13.08 -0.01,-0.49 -0.04,-0.98 -0.10,-1.42 -0.01,-0.08 -0.03,-0.16 -0.04,-0.23 -3e-5,-1.6e-4 2.9e-5,-3.6e-4 0,-5.2e-4 -0.03,-0.18 -0.08,-0.36 -0.13,-0.54 -4.5e-5,-1.5e-4 4.6e-5,-3.7e-4 0,-5.2e-4 -0.39,-1.29 -1.31,-2.75 -2.50,-4.42 -7.1e-5,-10e-5 7e-5,-4.2e-4 0,-5.2e-4 -4.07,-5.73 -11.23,-14.01 -10.45,-26.95 z" />
        <path
           style="fill:#fff4e7;stroke-width:0.25"
           d="m 72.91,287.46 c 6.11,-4.48 15.08,-2.27 20.73,0.51 -9.70,14.51 -22.30,12.81 -20.73,-0.51 z" />
        <path
           style="fill:#ba8781;stroke-width:0.25"
           d="m 72.91,287.46 c -0.05,-0.13 0.04,-0.14 -0.03,0.46 5.94,-4.49 13.52,-0.99 19.45,1.91 0.40,-0.49 0.80,-0.98 1.31,-1.86 -5.42,-2.67 -14.52,-5.08 -20.73,-0.51 z" />
        <path
           style="fill:#ba8781;stroke-width:0.25"
           d="m 122.94,280.15 c -5.03,1 -10.18,7.28 -10.18,7.28 l 0.13,0.33 c 3.97,-4.35 7.12,-6.51 9.18,-6.45 2.16,0.06 4.29,0.71 8.33,2.19 0.03,-0.58 0.04,-1.18 0.06,-1.82 0,0 -2.76,-1.09 -7.52,-1.52 z" />
        <path
           style="fill:#f8a05d;stroke-width:0.31"
           d="m 70.38,234.28 c -1.69,0.02 -3.40,0.33 -4.98,1.07 4.11,1.56 7.23,3.24 9.89,4.97 2.22,0.19 4.45,0.53 6.69,0.97 l -0.40,-2.32 c -1.13,-2.10 -6.11,-4.74 -11.20,-4.69 z" />
        <path
           style="fill:none;stroke:#531608;stroke-width:0.31"
           d="m 62.85,237.03 c 0.09,1.39 0.74,2.65 1.26,3.90 6.10,-1.27 11.90,-0.81 17.86,0.37 l -0.40,-2.32 c -1.73,-3.19 -12.37,-7.66 -18.72,-1.95 z" />
      </g>
      <g
         >
        <path
           style="fill:#ef4e23;stroke-width:0.50"
           d="m 110.39,207.72 2.74,2.18 c 0,0 9.71,4.03 12.57,5.42 0.73,0.31 1.26,0.94 1.44,1.71 l 1.32,5.62 c 2.19,1.13 3.75,-0.72 5.62,-2.22 l -1.48,-9.20 c -0.08,-0.52 -0.55,-1.11 -1.03,-1.31 -6.83,-2.83 -14.28,-5.39 -21.74,-7.95" />
        <path
           style="fill:#36221e;stroke-width:0.25"
           d="m 62.04,188.85 c -4.22,-0.10 -8.24,0.10 -12.37,0.40 0.44,12.76 -10.31,30.03 -11.80,42.93 -0.08,0.66 0.12,1.69 0.53,2.22 5.21,6.68 31.05,15.44 48.50,7.14 0.84,-0.08 1.11,-1.12 1.72,-2.30 18.41,7.14 26.68,-1.60 26.68,-1.60 0,0 4.30,-0.67 4.55,-3.06 -2.87,-11.34 -1.40,-21.36 -5.99,-31.28 -24.70,-11.17 -39.17,-14.15 -51.83,-14.45 z m 26.23,39.35 c 9.34,-0.01 19.61,2.10 28.57,7.27 -10.97,5.78 -29.88,4.11 -43.90,-5.15 4.45,-1.34 9.73,-2.11 15.33,-2.12 z M 85.66,240.69 c -10.71,6.49 -32.60,4.01 -45.91,-6.13 15.02,-5.06 35.90,-5.84 45.91,6.13 z" />
        <path
           style="fill:#ffd598;stroke-width:0.19"
           d="m 47.05,224.04 c 0.25,-2.63 0.78,-5.03 1.59,-7.19 -2.41,-0.13 -5.17,0.84 -7.40,2.28 l -2.12,6.34 c 2.24,-0.64 4.88,-1.12 7.92,-1.43 z" />
        <path
           style="fill:#ffd598;stroke-width:0.25"
           d="m 86.18,218.66 c 7.13,0.38 13.62,2.39 20.32,3.87 0.43,-2.56 0.66,-5.20 0.69,-7.92 -6.43,-1.68 -12.95,-3.04 -19.54,-4.08 -0.60,3.74 -1.01,5.72 -1.47,8.14 z" />
        <path
           style="fill:#ffd598;stroke-width:0.25"
           d="m 50.97,222.77 c 5.74,-0.08 10.97,0.25 15.70,1.01 0.35,-2.49 0.97,-4.99 1.60,-7.48 -5.09,-0.54 -10.23,-0.73 -15.43,-0.59 -0.82,2.24 -1.44,4.60 -1.87,7.06 z" />
        <path
           style="fill:#ffd598;stroke-width:0.25"
           d="m 71.50,220.14 c 3.02,-0.82 6.04,-1.27 9.06,-1.46 0.49,-3.15 1.26,-5.91 2.31,-8.28 -3.68,0.21 -7.33,0.54 -10.63,1.97 -0.83,2.22 -1.30,4.53 -1.76,6.84 -0.14,0.71 0.31,1.12 1.01,0.93 z" />
        <path
           style="fill:#f7a45e;stroke-width:0.25"
           d="m 110.92,220.44 c -0.21,1.15 -0.38,2.31 -0.47,3.48 2.61,0.86 5.18,1.71 7.72,2.61 -2.48,-1.96 -4.94,-3.92 -7.25,-6.09 z" />
        <path
           style="fill:#f7a45e;stroke-width:0.19"
           d="m 47.17,222.96 c -2.28,-0.09 -4.73,0.34 -6.50,1.58 l -0.19,0.59 c 1.90,-0.46 4.16,-0.83 6.57,-1.09 z" />
        <path
           style="fill:#f7a45e;stroke-width:0.25"
           d="m 86.38,217.58 c -0.07,0.36 -0.14,0.72 -0.20,1.08 5.77,0.33 11.30,1.73 16.68,3.02 -4.85,-2.46 -10.34,-3.82 -16.48,-4.10 z" />
        <path
           style="fill:#f7a45e;stroke-width:0.25"
           d="m 67.92,216.27 -0.25,0.12 -2.04,6.52 c -6.26,-1.87 -10.38,-1.32 -14.52,-0.80 l -0.09,0.33 c -9.5e-5,5.3e-4 -4.201e-4,0 -5.106e-4,0 -0.02,0.11 -0.04,0.22 -0.06,0.33 5.74,-0.08 10.97,0.25 15.70,1.01 0.35,-2.49 0.97,-4.99 1.60,-7.48 -0.12,-0.01 -0.23,-0.02 -0.35,-0.04 z" />
        <path
           style="fill:#f7a45e;stroke-width:0.25"
           d="m 80.66,218.07 c -3.83,0.09 -7.56,0.69 -10.20,1.48 0.04,0.50 0.45,0.75 1.03,0.59 2.91,-0.79 6.16,-1.26 9.06,-1.46 z" />
        <path
           style="fill:#f7a45e;stroke-width:0.25"
           d="m 102.95,213.55 c 1.63,1.58 3.32,3.80 3.99,5.57 l 0.04,-0.48 c 0.04,-0.40 0.17,-1.99 0.20,-4.04 -1.41,-0.37 -2.82,-0.72 -4.23,-1.05 z" />
        <path
           style="fill:#ffd59b;stroke-width:0.31"
           d="m 94.54,235.80 c 4.97,0.74 10.54,0.41 14.37,-2.85 0.46,-0.39 1.82,-0.01 1.82,-0.01 l 1.85,5.09 c -5.09,6.08 -10.82,5.79 -16.36,4.05 z" />
        <path
           style="fill:#f8a05d;stroke-width:0.50"
           d="m 109.69,232.77 c -0.31,-0.01 -0.61,0.03 -0.78,0.18 -3.83,3.26 -9.40,3.59 -14.37,2.85 l 0.44,1.65 0.03,0.05 c 3.23,-0.48 6.60,-0.45 10.14,0.19 0.82,1.51 1.28,3.09 1.61,4.70 2,-0.76 3.96,-2.13 5.83,-4.36 l -1.85,-5.09 c 0,0 -0.53,-0.15 -1.04,-0.16 z" />
        <path
           style="fill:none;stroke:#531608;stroke-width:0.31"
           d="m 94.54,235.80 c 4.97,0.74 10.54,0.41 14.37,-2.85 0.46,-0.39 1.82,-0.01 1.82,-0.01 l 1.85,5.09 c -5.09,6.08 -10.82,5.79 -16.36,4.05 z" />
      </g>
      <g
         >
        <path
           style="fill:#ef4e23;stroke-width:0.50"
           d="m 42.53,217.05 -7.42,6.87 c -0.35,0.33 -0.82,0.48 -1.29,0.41 l -6.54,-0.94 c -1.01,0.78 -4.09,4.21 -3.74,6.17 0.26,1.08 1.31,1.78 2.41,1.62 l 13.12,-1.95 z" />
        <path
           style="fill:#ffd59b;stroke-width:0.25"
           d="m 26.81,223.47 2.50,0.21 -1.71,6.38 -2.41,-4.56" />
        <path
           style="fill:#fca05e;stroke-width:0.50"
           d="m 28.41,211 -5.88,7.29 c -0.85,1.05 -1.15,2.43 -0.83,3.74 l 1.84,7.52 c -0.35,-1.96 2.66,-5.53 3.74,-6.17 l 4.75,-6.94 z" />
        <path
           style="fill:#ffd59b;stroke-width:0.25"
           d="m 27.36,212.31 1.10,9.37 -5.92,-3.38" />
        <path
           style="fill:#ffd59b;stroke-width:0.25"
           d="m 22.53,218.30 c -0.61,0.69 -0.93,1.64 -0.95,2.85 l 1.66,7.16 z" />
        <path
           style="fill:#ffd59b;stroke-width:0.25"
           d="m 29.31,223.68 5.01,5.92 0.79,-5.68 c -0.35,0.33 -0.82,0.48 -1.29,0.41 z" />
        <path
           style="fill:#ffd59b;stroke-width:0.25"
           d="m 40.06,219.34 -4.94,4.58 4.92,1.91 0.67,-2.37 z" />
        <path
           style="fill:none;stroke:#000000;stroke-width:0.50"
           d="m 28.41,211 -5.88,7.29 c -0.85,1.05 -1.15,2.43 -0.83,3.74 l 1.84,7.52 c 0.26,1.08 1.31,1.78 2.41,1.62 l 13.12,-1.95 3.47,-12.17 -7.42,6.87 c -0.35,0.33 -0.82,0.48 -1.29,0.41 l -6.54,-0.94 4.75,-6.94 z" />
        <path
           style="fill:#fca05e;stroke-width:0.50"
           d="m 91.63,195.45 c 6.81,9.41 13.04,21.11 25.85,30.47 1.44,1.57 4.23,2.18 6.21,1.39 5.11,-0.79 8.11,-2.24 10.89,-3.81 l -0.50,-3.07 c -1.87,1.50 -3.42,3.35 -5.62,2.22 -0.84,0.36 -2.09,0.55 -3.13,0.30 -4.91,-4.16 -8.80,-8.54 -12.47,-12.99 0.52,0.15 1.04,0.30 1.55,0.47 -0.79,-0.33 -1.28,-0.53 -1.28,-0.53 l -2.74,-2.18 -0.08,-0.81 c -2.36,-2.90 -4.67,-5.81 -7.24,-8.67 z" />
        <path
           style="fill:#ffd59b;stroke-width:1.90"
           d="m 95.04,200.27 9.50,0.46 -4.40,-8.57 z" />
        <path
           style="fill:#ffd59b;stroke-width:0.50"
           d="m 129.65,222.99 c 1.18,-0.48 2.12,-1.25 2.84,-2.30 l 1.59,-0.26 c -0.13,0.51 0.26,0.38 0.12,0.72 -0.52,1.17 -1.51,1.79 -2.89,2.88 -0.63,-0.24 -1.34,-0.44 -1.66,-1.04 z" />
        <path
           style="fill:#fe9d5a;stroke-width:1.90"
           d="m 121.75,213.08 -1.54,-6.15 -3.84,4.20" />
        <path
           style="fill:#fe9d5a;stroke-width:1.90"
           d="m 126.46,215.37 0.90,-5.90 -5.23,3.86" />
        <path
           style="fill:#fe9d5a;stroke-width:1.90"
           d="m 132.87,212.93 -6.27,3.04 1.20,3.87 5.23,-5.92 z m -5.07,6.91 0.66,2.81 4.04,-2.51 z" />
        <path
           style="fill:#ffd59b;stroke-width:1.90"
           d="m 120.48,218.48 -2.17,7.40 7.02,-2.92" />
        <path
           style="fill:#ffd59b;stroke-width:1.90"
           d="m 113.84,211.16 -3.45,8.74 8.97,-2.56" />
        <path
           style="fill:#ffd59b;stroke-width:1.90"
           d="m 124.94,223.31 -0.41,3.55 1.28,-0.33 2.89,-3.30" />
        <path
           style="fill:#ffd59b;stroke-width:1.90"
           d="m 105.74,201.31 -3.60,9.31 10.07,-1.42" />
        <path
           style="fill:#ffd59b;stroke-width:1.90"
           d="m 94.96,196.18 -0.54,2.93 -2.79,-3.66 z" />
        <path
           style="fill:none;stroke:#000000;stroke-width:0.50"
           d="m 112.86,209.98 c 4.69,1.61 8.18,3.08 12.83,5.34 0.73,0.31 1.26,0.94 1.44,1.71 l 1.32,5.62 c -0.84,0.36 -2.09,0.55 -3.13,0.30 -9.24,-7.82 -14.84,-16.45 -22.25,-24.72 l -11.44,-2.78 c 6.81,9.41 13.04,21.11 25.85,30.47 1.44,1.57 4.23,2.18 6.21,1.39 5.11,-0.79 8.11,-2.24 10.89,-3.81 l -1.98,-12.26 c -0.08,-0.52 -0.55,-1.11 -1.03,-1.31 -6.83,-2.83 -14.28,-5.39 -21.74,-7.95" />
      </g>
    </g>
    <g
       style="stroke-width:0.51">
      <g
         style="stroke-width:0.51">
        <path
           style="fill:#fff4e7;stroke:#531608;stroke-width:0.51"
           d="m 77.92,146.93 c -6.85,5.23 -11.93,8.63 -18.60,6.73 l 8.22,8.68 c 0,0 -6.97,9.51 -11.65,14.18 -0.90,1.04 -0.57,2.66 0.67,3.27 15.31,10.34 28.95,14.87 46.73,18.77 0,0 4.14,2.52 11.02,5.23 2.89,-1.89 2.59,-4.08 -0.92,-6.59 l -0.44,-4.17 c -6.04,-25.43 12.74,-36.20 15.53,-34.91 l -11.96,-9.82 z" />
        <path
           style="fill:#c18376;stroke-width:0.51"
           d="M 113.81,169.57 71.05,189.53 c 5.36,2.42 12.85,3.99 19.33,5.83 4.15,-2.69 8.06,-6.28 13.56,-10.18 l 8.89,3.62 c 0.13,-0.49 0.29,-1.01 0.48,-1.55 l 5.2e-4,0 z" />
        <path
           style="fill:#c18376;stroke-width:0.51"
           d="m 115.27,150.35 c -4.79,4.76 -8.28,10.60 -6.51,17.17 l -5.14,0.23 c 3.58,-7.73 6.90,-13.59 11.65,-17.40 z" />
        <path
           style="fill:#ffefd7;stroke-width:0.51"
           d="m 51,161.82 c 3.82,2.25 5.21,3.26 6.79,7.03 l 1.46,-0.88 c -1.27,-2.61 -1.69,-4.53 -3.59,-6.66 -1.28,-0.10 -3.39,0.26 -4.65,0.50 z" />
        <path
           style="fill:#faa057;stroke-width:0.51"
           d="m 48.54,164.94 c 1.74,0.86 3.26,1.85 4.82,3.32 l 3.34,-1.62 -1.57,-1.56 z" />
        <path
           style="fill:#c18376;stroke-width:0.51"
           d="m 81.25,148.16 -1.23,1.11 c 0.26,1.87 0.86,3.60 1.81,5.19 1.85,10.33 -20.18,16.64 -20.53,15.30 -1.48,1.83 -2.85,4.07 -4.30,5.62 l 5.70,4.10 20,-5.14 -5.63,-1.13 c 0.96,-0.21 1.99,-0.45 3.09,-0.72 l 0.10,-0.03 c 2.83,-1.04 4.49,-3.36 5.51,-5.92 0.98,-2.47 1,-5.33 1.89,-7.62 0.37,-0.95 1.56,-1.43 2.14,-2.28 3.35,0 5.69,-0.99 8.99,-3.15 l -1.06,-1.21 z" />
        <path
           style="fill:#c18376;stroke-width:0.51"
           d="m 77.92,146.93 c -1.21,0.93 -2.37,1.80 -3.49,2.59 -0.55,1 -1.04,1.97 -1.21,2.50 -0.44,1.39 -0.70,2.30 -0.70,2.30 -1.16,2.96 -3.10,5.49 -4.98,8.02 l 0,0 c 0,0 -0.09,0.11 -0.09,0.12 -0.04,0.06 -0.08,0.12 -0.13,0.18 l 2.16,-0.92 8.72,-14.78 z" />
      </g>
      <g
         style="stroke-width:0.51">
        <path
           style="fill:#856a65;stroke-width:0.51"
           d="M 34.18,191.64 39.28,176.35 63,185.13 48.77,203.06 Z" />
        <path
           style="fill:#856a65;stroke-width:0.51"
           d="m 122.89,170.48 c -11.37,1.96 -13.15,11.70 -8.89,21.09 10.85,-4.35 9.18,-10.73 8.89,-21.09 z" />
        <path
           style="fill:#37221e;stroke-width:0.51"
           d="m 114.22,174.67 c 6.54,21.32 41.11,24.36 30.69,-15.26 -2.46,16.79 -10.74,15.62 -23.19,1.58 z" />
        <path
           style="fill:#ffd59b;stroke-width:0.51"
           d="m 116.96,169.67 -0.76,1.39 c -0.29,3.89 -0.59,7.71 2.50,11.36 0.71,0.77 1.47,1.48 2.27,2.13 -2.83,-4.52 -4.18,-9.73 -3.60,-14.88 z" />
        <path
           style="fill:#37221e;stroke-width:0.51"
           d="m 122.42,184.54 c -2.17,3.10 -5.24,5.83 -8.39,6.82 -4.04,-8.92 -0.89,-20.49 9.90,-22.35 l -16.24,-5.19 c -1.02,5.52 -2.57,10.38 -3.05,16.58 0,0 3.11,9.34 7.15,11.93 3.44,2.20 7.38,-1.55 11.70,-6.86 z" />
        <path
           style="fill:#ffd59b;stroke-width:0.51"
           d="m 111.30,170 c -2.76,5.34 -3.87,11.52 -3.62,17.28 0.42,0.76 0.88,1.51 1.37,2.20 -0.66,-6.18 0.31,-13.12 3.32,-18.93 z" />
        <path
           style="fill:#ffd59b;stroke-width:0.51"
           d="m 122.93,168.79 c 17.35,21.79 23.94,8.92 22.54,-9.34 -1.61,-0.60 -3.15,-0.95 -4.19,0.45 0.92,8.41 -1.03,18.95 -19.26,1.59 z" />
        <path
           style="fill:#fcb978;stroke-width:0.51"
           d="m 142.25,159.11 c -0.49,-0.02 -0.64,0.43 -0.96,0.79 0.86,7.82 -0.63,19.33 -19.26,1.59 l 0.91,7.30 c 7.27,9.13 12.65,12.17 16.34,11.29 l -1.07,-8 c 2.66,-2.41 3.89,-3.80 4.04,-12.97 z" />
        <path
           style="fill:#37221e;stroke-width:0.51"
           d="m 57.80,153.01 c -3.27,0.05 -6.09,1.18 -8.67,2.93 0.12,1.68 1.08,3.84 2.12,5.83 0.18,-0.03 0.48,-0.09 0.73,-0.13 -0.76,-1.14 -1.71,-3.18 -2.16,-4.32 5.38,1.50 7.23,6.12 9.43,10.65 l 5.43,-1.67 4.54,-1.40 c -0.16,-5.64 -1.85,-8.02 -7.97,-11.57 -1.20,-0.24 -2.34,-0.34 -3.43,-0.33 z" />
        <path
           style="fill:#ffd59b;stroke-width:0.51"
           d="m 55.69,153.20 c -0.93,0.15 -1.82,0.39 -2.69,0.71 6.77,4.06 8.58,5.64 10.70,12.69 l 1.90,-0.59 c -2.10,-6.79 -4.45,-9.43 -9.92,-12.82 z" />
        <path
           style="fill:#856a65;stroke-width:0.51"
           d="m 61.49,167.29 -2.24,0.69 c -2.20,-4.54 -4.04,-9.16 -9.43,-10.65 0.45,1.14 1.40,3.18 2.16,4.32 -0.26,0.04 -0.56,0.10 -0.73,0.13 -0.85,-1.64 10.24,5.51 10.24,5.51 z" />
        <path
           style="fill:#37221e;stroke-width:0.51"
           d="m 44.11,163.06 c -5.75,2.60 -11.39,6.69 -12.46,10.36 -1.16,4.03 -0.48,11.63 -0.15,14.62 9.62,-11.59 11.77,-18.46 23.26,-12.14 0.28,0.15 0.37,0.71 0.37,1.15 l 1.87,1.20 1.90,-2.96 C 53.46,166.92 50.39,165.51 44.11,163.06 Z" />
        <path
           style="fill:#ffd59b;stroke-width:0.51"
           d="m 36.18,197.03 c 0,0 -1.49,-12.35 4.25,-17.36 5.74,-5.01 11.54,-2.38 15.02,-1.24 0.70,0.23 0.94,-1.44 0.45,-1.90 C 37.71,159.18 24.09,194.18 36.18,197.03 Z" />
        <path
           style="fill:#fcb978;stroke-width:0.51"
           d="m 53.70,174.66 c -1.57,0.44 -4.62,0.36 -9.69,2.78 3.74,-1.51 7.66,-0.28 11.29,0.94 l 0.81,-1.43 c -0.20,-0.87 -2.41,-2.29 -2.41,-2.29 z" />
        <path
           style="fill:#ffd59b;stroke-width:0.51"
           d="m 49.66,161.02 c -1.13,0.30 -4.28,1.39 -5.55,2.04 6.29,2.45 9.36,3.87 14.79,12.23 l 0.34,-7.31 c -1.64,-1.83 -7.15,-5.59 -8.83,-6.78 -0.20,-0.14 -0.54,-0.23 -0.76,-0.17 z" />
        <path
           style="fill:#fcb978;stroke-width:0.51"
           d="m 36.14,190.28 c -1.43,0.80 -2.91,1.16 -4.44,1.09 0.39,2.84 1.81,5.03 4.47,5.66 0,0 -0.37,-3.06 -0.03,-6.75 z" />
      </g>
      <g
         style="stroke-width:0.51">
        <path
           style="fill:#fda056;stroke:#7d3434;stroke-width:0.51"
           d="m 124.27,124 c -3.85,1.15 -9.33,-0.56 -10.16,6.84 5.49,1.17 9.10,2.26 14.98,0.25 -2.96,-1.92 -4.23,-3.94 -4.82,-7.09 z m -25.45,11.29 c 0.11,1.82 0.21,3.44 0.21,3.44 6.85,1.28 10.60,2.99 17.26,0.71 -3.56,-2.32 -5,-3.02 -5.48,-7.14 -1.10,-11.36 -7.20,1.29 -11.99,2.99 z m -28.20,-5.50 c 0,0 -1.55,7.60 -3.85,10.17 3.74,-0.10 5.83,-1.09 7.71,-4.05 -0.31,0.48 -1.36,1.98 -1.66,2.77 2.73,-1.52 5.04,-2.27 7.32,-4.95 0.89,-9.54 -4.13,-11.03 -9.52,-3.94 z m 13.41,4.89 c -0.71,4.92 -2.28,4.56 -6.16,7.08 6.66,2.28 10.41,0.57 17.26,-0.71 l 0.33,-5.50 c -3.31,-1.47 -9.40,-6.56 -11.43,-0.87 z" />
        <path
           style="fill:#ffd59b;stroke:#ba5231;stroke-width:0.51"
           d="m 88.99,155.27 c 3.43,0.04 4.60,-0.21 7.91,-2.38 L 80.42,148.76 c 0.29,2.06 0.99,3.89 2.17,5.58 z" />
        <path
           style="fill:#37221e;stroke-width:0.51"
           d="m 89.13,138.25 c -3.41,1.74 -7.54,3.90 -12.38,6.46 5.97,14.74 35.64,7.88 40.39,3.79 -3.81,-3.74 -7.32,-7.16 -10.52,-10.25" />
        <path
           style="fill:#ffd59b;stroke-width:0.51"
           d="m 79.19,143.42 c -0.35,0.18 -0.71,0.37 -1.06,0.56 1.77,2.98 4.77,6.82 8.71,7.81 3.87,0.98 22.66,-2.30 28.42,-5.13 -0.31,-0.30 -0.61,-0.60 -0.92,-0.90 -6.13,2.71 -23.82,5.72 -27.21,4.86 -3.32,-0.84 -6.24,-4.39 -7.94,-7.21 z" />
        <rect
           style="fill:#f7d4c0;stroke-width:0.51"
           width="7.48"
           height="8.89"
           x="94.59"
           y="134.24" />
        <path
           style="fill:#ffffff;stroke-width:0.51"
           d="m 86.58,152.64 3.72,-12.78 c 2.04,-1.12 6.69,-1.24 11.77,1.25 v 2.02 z" />
        <g
           style="stroke-width:0.51">
          <path
             style="fill:#ffd59b;stroke-width:0.51"
             d="m 81.63,157.31 -5.87,6.88 -18.59,0.81 c -4.16,0.19 -7.83,2.38 -11.52,4.10 21.57,0.68 8.97,8.57 33.75,2.55 5.40,-1.98 6.30,-8.71 7.33,-14.03 2.50,-2.35 5.46,-5.28 -0.27,-6.53 -4.37,-0.87 -4.09,3.18 -4.84,6.22 z" />
          <path
             style="fill:#fe9f63;stroke-width:0.51"
             d="m 88.17,154.43 c -1.28,0.88 -4.90,2.38 -6.41,2.46 -0.06,0.27 -0.15,0.54 -0.23,0.80 1.31,0.75 4.44,3.98 4.44,3.98 0.30,-1.37 0.54,-2.74 0.79,-4.04 0.98,-0.92 2.02,-1.92 2.59,-2.88 -0.69,-0.19 -1.19,-0.33 -1.19,-0.33 z" />
          <path
             style="fill:#fe9f63;stroke-width:0.51"
             d="M 75.96,164.27 C 0,0.05 0,0.05 75.96,164.27 Z m 0,0 c -0.65,2.67 -4.48,1.44 -4.67,2.85 -0.07,0.54 0.74,0.79 1.57,0.49 1.48,-0.53 2.75,-1.59 3.10,-3.34 z" />
          <path
             style="fill:none;stroke:#c18376;stroke-width:0.51"
             d="m 81.63,157.31 -5.87,6.88 -18.59,0.81 c -4.16,0.19 -7.83,2.38 -11.52,4.10 21.57,0.68 8.97,8.57 33.75,2.55 5.40,-1.98 6.30,-8.71 7.33,-14.03 2.50,-2.35 5.46,-5.28 -0.27,-6.53 -4.37,-0.87 -4.09,3.18 -4.84,6.22 z" />
          <path
             style="fill:none;stroke:#c18376;stroke-width:0.51"
             d="m 81.63,157.31 c 1.70,-0.44 3.40,-0.34 5.11,0.31" />
          <path
             style="fill:none;stroke:#c18376;stroke-width:0.51"
             d="m 72.65,167.68 c 1.59,-0.51 2.98,-1.61 3.32,-3.50" />
        </g>
      </g>
      <g
         style="stroke-width:0.51">
        <path
           style="fill:#fff4e7;stroke-width:0.51"
           d="m 32.54,200.79 c 0.55,4.59 1.62,9.46 3.62,13.46 L 101.92,171.89 95.97,160.07 C 69.81,175.03 53.66,187.22 32.54,200.79 Z" />
        <path
           style="fill:none;stroke:#d4b3a8;stroke-width:0.51"
           d="M 97.50,174.94 91.40,162.72 Z" />
        <path
           style="fill:none;stroke:#d4b3a8;stroke-width:0.51"
           d="M 93.15,177.52 87.05,165.29 Z" />
        <path
           style="fill:none;stroke:#d4b3a8;stroke-width:0.51"
           d="M 88.81,180.09 83.03,167.72 Z" />
        <path
           style="fill:none;stroke:#d4b3a8;stroke-width:0.51"
           d="M 75.96,188.22 69.94,175.98 Z" />
        <path
           style="fill:none;stroke:#d4b3a8;stroke-width:0.51"
           d="M 71.91,191.30 65.75,178.72 Z" />
        <path
           style="fill:none;stroke:#d4b3a8;stroke-width:0.51"
           d="M 68.07,194.20 61.33,181.02 Z" />
        <path
           style="fill:none;stroke:#d4b3a8;stroke-width:0.51"
           d="m 63.47,197.10 -6.12,-12.79 z" />
        <path
           style="fill:none;stroke:#d4b3a8;stroke-width:0.51"
           d="M 58.83,199.67 53.39,186.97 Z" />
        <path
           style="fill:none;stroke:#d4b3a8;stroke-width:0.51"
           d="m 55.02,202.25 -5.20,-12.87 z" />
        <path
           style="fill:none;stroke:#d4b3a8;stroke-width:0.51"
           d="M 50.73,205.14 45.93,191.98 Z" />
        <path
           style="fill:none;stroke:#d4b3a8;stroke-width:0.51"
           d="M 46.88,207.60 41.84,194.71 Z" />
        <path
           style="fill:none;stroke:#d4b3a8;stroke-width:0.51"
           d="m 42.84,210.19 -4.46,-13.19 z" />
        <path
           style="fill:none;stroke:#d4b3a8;stroke-width:0.51"
           d="M 39.33,212.43 34.80,198.72 Z" />
        <path
           style="fill:none;stroke:#d4b3a8;stroke-width:0.51"
           d="M 84.49,182.71 78.94,170.25 Z" />
        <path
           style="fill:none;stroke:#d4b3a8;stroke-width:0.51"
           d="M 80.36,185.64 74.35,173.14 Z" />
        <path
           style="fill:#000000;stroke-width:0.51"
           d="m 153.07,132.16 c -0.87,-0.02 -1.76,0.20 -2.64,0.74 l -44.67,32.07 -3.51,-5.92 c -1.23,-2.07 -3.94,-2.70 -5.95,-1.36 l -69.29,45.94 3.06,16.07 5.01,2.44 124.56,-82.17 -0.84,-3.76 -5.2e-4,0 h -5.1e-4 c -0.18,-0.80 -2.81,-3.97 -5.72,-4.05 z m -57.10,27.91 5.95,11.82 -65.76,42.37 c -2,-4 -3.08,-8.88 -3.62,-13.46 21.13,-13.57 37.28,-25.76 63.44,-40.73 z" />
        <path
           style="fill:none;stroke:#000000;stroke-width:1.54"
           d="m 39.33,212.43 -2.27,-6.85 z" />
        <path
           style="fill:none;stroke:#000000;stroke-width:1.54"
           d="M 46.88,207.60 44.36,201.16 Z" />
        <path
           style="fill:none;stroke:#000000;stroke-width:1.54"
           d="m 76.51,188.85 -3.05,-6.11 z" />
        <path
           style="fill:none;stroke:#000000;stroke-width:1.54"
           d="m 67.96,193.94 -3.05,-6.11 z" />
        <path
           style="fill:none;stroke:#000000;stroke-width:1.54"
           d="m 63.47,197.10 -3.06,-6.40 z" />
        <path
           style="fill:none;stroke:#000000;stroke-width:1.54"
           d="m 55.02,202.25 -2.60,-6.44 z" />
        <path
           style="fill:none;stroke:#000000;stroke-width:1.54"
           d="M 50.73,205.14 48.33,198.56 Z" />
        <path
           style="fill:none;stroke:#000000;stroke-width:1.54"
           d="m 80.94,185.91 -3.05,-6.11 z" />
        <path
           style="fill:none;stroke:#000000;stroke-width:1.54"
           d="m 97.50,174.94 -3.05,-6.11 z" />
        <path
           style="fill:none;stroke:#000000;stroke-width:1.54"
           d="m 93.60,178.16 -3.05,-6.11 z" />
        <path
           style="fill:none;stroke:#000000;stroke-width:1.54"
           d="m 85,183.29 -3.05,-6.11 z" />
        <path
           style="fill:#000000;stroke-width:0.51"
           d="m 141.87,152.20 5.69,-3.75 0.58,-7.27 -8.36,0.60 z" />
        <path
           style="fill:#c08378;stroke-width:0.51"
           d="m 54.74,180.41 -8.73,2.66 4.93,8.21 2.72,-2.19 c 2.75,2.08 7.64,0.48 7.86,-1.20 0.18,-1.33 -1.81,-2.62 -3.93,-3.75 -0.43,0.29 -0.87,0.58 -1.30,0.87 z m -5.01,9.02 c -2.10,1.41 -4.20,2.82 -6.33,4.24 0.81,1.61 1.72,3.06 3.25,4.81 1.17,1.33 4.10,-0.13 5.04,-1.29 0.41,-0.51 0.52,-1.44 0.28,-2.06 z m -7.56,5.06 c -1.85,1.23 -3.73,2.47 -5.64,3.71 l 0.36,4.11 c 0.04,0.41 0.23,1.04 0.49,1.36 0.17,0.21 0.35,0.39 0.55,0.56 0.44,0.37 0.90,0.34 1.22,0.07 l 0.04,0.60 c 0.03,0.48 0.37,1.11 0.81,1.30 1.35,0.57 2.18,-0.17 2.86,-0.89 0.28,-0.30 0.48,-0.87 0.43,-1.28 z m -5.64,3.71 c -0.55,0.36 -1.10,0.72 -1.66,1.08 l 0.13,1.71 c 0.29,0.82 0.78,1.21 1.34,1.43 0.31,0.12 0.56,-0.09 0.53,-0.43 z" />
      </g>
      <g
         style="stroke-width:0.51">
        <path
           style="fill:#fff4e7;stroke-width:0.51"
           d="m 118.57,154.28 c -0.05,1.75 0.37,3.83 1.44,5.25 0.77,-1.06 1.75,-2.19 2.61,-3.01 -0.09,-0.11 -0.17,-0.20 -0.23,-0.29 -0.20,-1.03 -0.73,-1.90 -1.52,-2.72 -0.70,-0.72 -2.19,0.37 -2.30,0.77 z" />
        <path
           style="fill:#fedabe;stroke-width:0.51"
           d="m 134.57,137.08 c -0.07,-8.2e-4 -0.13,0 -0.20,0.01 -0.42,0.05 -0.82,0.15 -1.19,0.31 -0.78,0.33 -1.18,1.55 -1.02,2.39 0.66,3.48 1.92,7.01 3.66,10.74 l -1.17,1.57 c -2.88,-3.47 -6.24,-6.62 -9.69,-9.71 -0.56,-0.50 -1.65,-0.95 -2.37,-0.74 -1.10,0.32 -1.11,4.02 0.93,6.94 -0.42,-0.26 -2.86,-2.86 -3.35,-2.76 -1.28,0.29 -2.08,1.20 -2.30,2.39 -0.10,0.55 0.12,1.43 0.47,1.86 1.79,2.18 7.56,7.15 7.04,7.83 -0.61,0.80 -2.43,-0.91 -2.99,-1.68 -0.22,-1.01 -0.72,-1.92 -1.52,-2.72 -0.73,-0.54 -1.93,-0.50 -2.30,0.77 -0.53,1.84 0.45,4.23 1.76,5.63 3.01,2.82 7.59,7.11 9.93,8.34 l 1.64,3.54 10.35,-0.81 -1.10,-10.25 3.28,-5.51 c -1.96,-0.30 -2.84,-1.30 -2.64,-3.01 3e-5,-2.8e-4 -3e-5,-7.6e-4 0,0 -0.37,-3.72 -2.55,-8.39 -4.74,-13.27 -0.41,-0.90 -1.49,-1.84 -2.48,-1.86 z m 9.86,18.14 3.57,-6 -5.2e-4,-5.2e-4 z m -2.58,-3.52 5.69,-3.75 c -0.34,1.08 -4.69,5.09 -5.69,3.75 z" />
        <path
           style="fill:#ffecda;stroke-width:0.51"
           d="m 134.57,137.08 c -0.05,-5.7e-4 -0.09,0 -0.14,0.01 -0.05,0.01 -0.09,0.01 -0.14,0.02 -0.16,0.02 -0.31,0.05 -0.46,0.09 -0.03,0.01 -0.07,0.01 -0.10,0.02 -0.17,0.05 -0.34,0.10 -0.50,0.17 -0.04,0.02 -0.09,0.04 -0.13,0.06 -0.16,0.08 -0.30,0.20 -0.42,0.35 v 5.1e-4 c -0.43,0.52 -0.63,1.35 -0.51,1.98 9.4e-4,0.01 0,0.01 0,0.02 0.36,1.87 0.89,3.76 1.57,5.69 1.47,-0.85 3.74,-1.75 5.30,-2.10 -0.62,-1.44 -1.30,-2.95 -1.98,-4.45 -0.05,-0.11 -0.11,-0.23 -0.19,-0.34 -0.03,-0.04 -0.06,-0.09 -0.09,-0.13 -0.05,-0.07 -0.10,-0.14 -0.15,-0.21 -0.04,-0.04 -0.08,-0.09 -0.12,-0.13 -0.06,-0.06 -0.12,-0.13 -0.18,-0.19 -0.05,-0.04 -0.09,-0.08 -0.14,-0.13 -0.06,-0.05 -0.12,-0.11 -0.19,-0.16 -0.05,-0.04 -0.11,-0.07 -0.16,-0.11 -0.07,-0.05 -0.13,-0.09 -0.20,-0.13 -0.10,-0.05 -0.19,-0.11 -0.29,-0.15 -0.03,-0.01 -0.06,-0.02 -0.09,-0.04 -0.03,-0.01 -0.06,-0.02 -0.09,-0.03 -0.04,-0.01 -0.08,-0.03 -0.13,-0.04 -0.02,-0.01 -0.04,-0.01 -0.06,-0.02 -0.05,-0.01 -0.09,-0.02 -0.14,-0.03 -0.02,0 -0.04,-0.01 -0.06,-0.01 -0.06,-0.01 -0.13,-0.01 -0.19,-0.01 z" />
        <path
           style="fill:#ffecda;stroke-width:0.51"
           d="m 121.48,146.07 c -2.19,0.01 -3.81,1.22 -3.66,3.15 0.04,0.50 1.59,2.06 3.28,3.73 0.81,-1.19 2.18,-2.69 3.36,-3.73 -1.44,-1.19 -3.57,-3.08 -2.97,-3.15 z" />
        <path
           style="fill:#ffecda;stroke-width:0.51"
           d="m 123.01,141.60 c -0.51,-0.01 -2.42,0.43 -2.18,2.98 0,0.03 0,0.05 0.01,0.08 1.59,2 0.55,1.42 1.01,1.87 l -0.16,-0.15 c -0.18,-0.18 -0.45,-0.34 -0.74,-0.45 0.37,0.82 4.37,4.02 4.39,4.03 -0.48,-0.66 1.17,-2.57 3.21,-4.26 -1.18,-1.12 -2.39,-2.22 -3.61,-3.31 -0.01,-0.01 -0.01,-0.01 -0.02,-0.02 -0.46,-0.40 -1.25,-0.76 -1.92,-0.78 z" />
        <path
           style="fill:#feb4a1;stroke-width:0.51"
           d="m 147.54,147.95 -5.69,3.75 c -2e-5,1.7e-4 2e-5,3.5e-4 0,5.2e-4 -0.02,0.17 -0.04,0.34 -0.06,0.51 -0.20,1.71 0.68,2.71 2.64,3.01 l 3.57,-6 z" />
        <path
           style="fill:#feb4a1;stroke-width:0.51"
           d="m 141.37,162.77 c -4.39,3.77 -7.33,5.77 -14.64,2.92 1.37,1.14 2.62,2.08 3.53,2.57 l 1.64,3.54 10.35,-0.81 z" />
        <path
           style="fill:none;stroke:#75493a;stroke-width:0.51"
           d="m 134.57,137.08 c -0.07,-8e-4 -0.13,0 -0.20,0.01 -0.42,0.05 -0.82,0.15 -1.19,0.31 -0.78,0.33 -1.18,1.55 -1.02,2.39 0.66,3.48 1.92,7.01 3.66,10.74 l -1.17,1.57 c -2.88,-3.47 -6.24,-6.62 -9.69,-9.71 -0.56,-0.50 -1.65,-0.95 -2.37,-0.74 -0.88,0.25 -1.71,0.87 -1.77,2.31 -0.01,0.37 0.17,0.94 0.40,1.22 1.74,2.14 8.93,9.41 9.32,9.79 l -8.83,-8.61 c -0.36,-0.35 -1.06,-0.65 -1.54,-0.54 -1.28,0.29 -2.08,1.20 -2.30,2.39 -0.10,0.55 0.12,1.43 0.47,1.86 1.79,2.18 7.56,7.15 7.04,7.83 -0.61,0.80 -2.43,-0.91 -2.99,-1.68 -0.22,-1.01 -0.72,-1.92 -1.52,-2.72 -0.73,-0.54 -1.93,-0.50 -2.30,0.77 -0.53,1.84 0.45,4.23 1.76,5.63 0.52,0.49 1.09,1.02 1.69,1.58 1.27,1.21 2.46,2.28 3.58,3.23 1.69,1.44 3.21,2.58 4.57,3.48 0.03,0.02 0.06,0.03 0.09,0.05 l 0.01,0.02 c 13.32,8.69 10.99,-6.98 10.88,-7.53 1.50,-2.46 4.99,-8.52 6.85,-11.52 l -0.49,-1.33 -5.65,3.81 -0.06,0.51 c -0.06,-2.98 -2.60,-8.56 -4.73,-13.28 -0.41,-0.90 -1.49,-1.84 -2.49,-1.85 z"
           transform="translate(-2.686e-5,-9.878e-5)" />
        <path
           style="fill:#fedabe;stroke-width:0.51"
           d="m 47.59,176.71 c -2.23,0.07 -4.62,0.79 -7.01,2.82 l -1.65,5.49 c -2.43,3.45 -2.81,7.07 -3.60,10.65 l 0.23,3.14 c 0.29,0.82 0.78,1.21 1.34,1.43 0.31,0.12 0.56,-0.09 0.53,-0.43 l -0.48,-5.60 0.75,6.08 c 0.05,0.41 0.25,1.04 0.51,1.36 0.17,0.21 0.35,0.39 0.55,0.56 0.90,0.74 1.83,-0.13 1.69,-1.30 l -1.21,-10.37 1.50,11.70 c 0.06,0.48 0.43,1.11 0.87,1.30 1.35,0.57 2.18,-0.17 2.86,-0.89 0.28,-0.30 0.48,-0.87 0.43,-1.28 l -1.68,-14.20 c 1.61,3.52 2.44,7.48 5.05,10.46 0.37,0.42 1.15,0.65 1.66,0.41 0.77,-0.37 1.38,-0.97 1.93,-1.64 0.41,-0.51 0.52,-1.44 0.28,-2.06 l -2.40,-6.10 c 0.01,-1.75 -0.01,-3.40 0.77,-5.14 0.94,0.44 2.06,0.52 3.30,0.38 1.53,5.24 9.14,3.25 9.43,1.15 0.26,-1.88 -3.84,-3.69 -6.51,-5.06 l -3.10,-1.77 0,-5.2e-4 c -1.73,-0.58 -3.79,-1.16 -6.02,-1.09 z" />
        <path
           style="fill:#feb4a1;stroke-width:0.51"
           d="m 48.56,190.30 c -1.74,0.11 -2.62,0.88 -3.27,2.06 0.76,1.88 1.63,3.70 2.99,5.26 0.37,0.42 1.15,0.65 1.66,0.41 0.77,-0.37 1.38,-0.97 1.93,-1.64 0.41,-0.51 0.52,-1.44 0.28,-2.06 L 50.60,190.43 c -0.79,-0.12 -1.47,-0.16 -2.05,-0.12 z" />
        <path
           style="fill:#feb4a1;stroke-width:0.51"
           d="m 57.15,182.32 c -1.49,-0.01 -2.56,0.43 -3.46,1.18 0.04,0 0.08,-0.01 0.12,-0.01 1.53,5.24 9.14,3.25 9.43,1.15 0.04,-0.27 -0.02,-0.54 -0.14,-0.80 -2.56,-1.05 -4.46,-1.50 -5.94,-1.51 z" />
        <path
           style="fill:#feb4a1;stroke-width:0.51"
           d="m 42.01,194.45 c -0.98,-0.01 -1.66,0.26 -2.17,0.75 l 0.90,7.03 c 0.06,0.48 0.43,1.11 0.87,1.30 1.35,0.57 2.18,-0.17 2.86,-0.89 0.28,-0.30 0.48,-0.87 0.43,-1.28 l -0.78,-6.57 c -0.84,-0.22 -1.53,-0.33 -2.12,-0.34 z" />
        <path
           style="fill:#feb4a1;stroke-width:0.51"
           d="m 39.81,195.43 c -0.90,0.43 -1.78,0.71 -2.57,0.23 0,0.50 0.24,4.76 0.97,5.99 0.14,0.23 0.35,0.39 0.55,0.56 0.90,0.74 1.83,-0.13 1.69,-1.30 z" />
        <path
           style="fill:#feb4a1;stroke-width:0.51"
           d="m 37.09,195.98 c -0.58,0.28 -1.15,0.50 -1.70,0.48 l 0.17,2.34 c 0.29,0.82 0.78,1.21 1.34,1.43 0.31,0.12 0.56,-0.09 0.53,-0.43 l -0.33,-3.83 z" />
        <path
           style="fill:none;stroke:#75493a;stroke-width:0.51"
           d="m 47.59,176.71 c -2.23,0.07 -4.62,0.79 -7.01,2.82 l -1.65,5.49 c -2.43,3.45 -2.81,7.07 -3.60,10.65 l 0.23,3.14 c 0.29,0.82 0.78,1.21 1.34,1.43 0.31,0.12 0.56,-0.09 0.53,-0.43 l -0.48,-5.60 0.75,6.08 c 0.05,0.41 0.25,1.04 0.51,1.36 0.17,0.21 0.35,0.39 0.55,0.56 0.90,0.74 1.83,-0.13 1.69,-1.30 l -1.21,-10.37 1.50,11.70 c 0.06,0.48 0.43,1.11 0.87,1.30 1.35,0.57 2.18,-0.17 2.86,-0.89 0.28,-0.30 0.48,-0.87 0.43,-1.28 l -1.68,-14.20 c 1.61,3.52 2.44,7.48 5.05,10.46 0.37,0.42 1.15,0.65 1.66,0.41 0.77,-0.37 1.38,-0.97 1.93,-1.64 0.41,-0.51 0.52,-1.44 0.28,-2.06 l -2.40,-6.10 c 0.01,-1.75 -0.01,-3.40 0.77,-5.14 0.94,0.44 2.06,0.52 3.30,0.38 1.53,5.24 9.14,3.25 9.43,1.15 0.26,-1.88 -3.84,-3.69 -6.51,-5.06 l -3.10,-1.77 0,-5.2e-4 c -1.73,-0.58 -3.79,-1.16 -6.02,-1.09 z" />
      </g>
    </g>
    <g
       style="stroke-width:0.82">
      <g
         style="stroke-width:0.82">
        <ellipse
           style="fill:#feb4a1;stroke:#7d3434;stroke-width:0.82"
           cx="60.50"
           cy="119.67"
           rx="14.78"
           ry="14.28" />
        <ellipse
           style="fill:#feb4a1;stroke:#7d3434;stroke-width:0.82"
           cx="130.61"
           cy="109.67"
           rx="14.78"
           ry="14.28" />
      </g>
      <g
         style="stroke-width:0.82">
        <ellipse
           style="fill:#ffefd6;stroke-width:0.82"
           ry="40.59"
           rx="44.14"
           cy="95.02"
           cx="93.37" />
        <path
           style="fill:#feb4a1;stroke-width:0.82"
           d="m 61.39,121.17 c 0.98,4.65 7.16,7.60 11.15,9.63 l 3.42,-2.27 -5.82,-1.15 4.94,-2.38 z" />
        <path
           style="fill:#feb4a1;stroke-width:0.82"
           d="m 128.15,114.58 -14.03,2.68 13.34,0.23" />
        <path
           style="fill:#feb4a1;stroke-width:0.82"
           d="m 70.56,74.73 c -6,7.39 -6.83,13.77 -9.62,24.08 l 8.25,-15.62 5.29,4.43 C 72.47,82.13 71.44,81.35 70.56,74.73 Z" />
        <path
           style="fill:#feb4a1;stroke-width:0.82"
           d="m 106.07,70.09 c -0.28,7.60 -0.21,15.32 -0.31,23.30 l 3.01,-14.06 12.66,9.23 c -6.70,-6.12 -12.14,-12.98 -15.36,-18.47 z" />
        <ellipse
           style="fill:#f7d4c0;stroke-width:0.82"
           cx="96.05"
           cy="116.41"
           rx="0.92"
           ry="0.69" />
        <path
           style="fill:#ffffff;stroke:#d88230;stroke-width:0.82"
           d="m 105.50,123.23 c 0.37,4.41 -13.51,6.45 -15.28,2.33 -0.32,-0.75 15.20,-3.32 15.28,-2.33 z" />
        <path
           style="fill:#531608;stroke-width:0.82"
           d="M 83.14,98.89 C 74.75,95.02 70.07,95.76 59.70,99.67 l -12.39,8.20 10.06,14.77 z" />
        <path
           style="fill:#ffffff;stroke:#ffffff;stroke-width:0.82"
           d="m 58.41,111.03 c -4.1e-5,19.53 36.07,17.27 25.54,-5.86 -0.77,-1.69 -3,-3.39 -4.83,-3.68 -12.94,-2.05 -18.42,6.01 -20.71,9.54 z" />
        <path
           style="fill:#b7817c;stroke-width:0.82"
           d="m 58.16,110.96 c 0,1.62 0.19,2.60 0.44,3.68 l 26.55,-7.12 c -0.88,-2.95 -2.80,-5.76 -5.99,-6.27 -11.54,-1.83 -17.58,4.03 -21,9.71 z" />
        <path
           style="fill:#6dc4ba;stroke-width:0.82"
           d="m 74.75,100.85 a 10.99,11.70 0 0 0 -10.99,11.70 10.99,11.70 0 0 0 10.05,11.66 c 4.15,-0.28 8.10,-2.11 10.28,-5.50 a 10.99,11.70 0 0 0 1.65,-6.16 10.99,11.70 0 0 0 -10.99,-11.70 z" />
        <path
           style="fill:#6d8886;stroke-width:0.82"
           d="m 63.78,112.99 20.85,-5.59 c -5.25,-11.40 -21.38,-6.93 -20.85,5.59 z" />
        <path
           style="fill:#b1efd4;stroke-width:0.82"
           d="m 81.58,114 c -1.10,5.87 -7.92,7.92 -11.78,3.77 l -3.63,2.09 c 2.08,2.77 4.93,4.15 7.81,4.33 4.29,-0.33 8.33,-2.32 10.41,-5.98 0.64,-1.24 1.08,-2.65 1.26,-4.22 z" />
        <ellipse
           style="fill:#f7e5d4;stroke-width:0.82"
           cx="50.07"
           cy="130"
           rx="2.75"
           ry="4.78"
           transform="matrix(0.95,-0.30,0.22,0.98,0,0)" />
        <path
           style="fill:#531608;stroke-width:0.82"
           d="m 101.31,98.13 c 1.20,-2.59 3.10,-5.77 6.88,-7.53 6.48,-3.01 12.94,-1.99 19.65,0 l 12.88,10.94 -10.06,14.77 z" />
        <path
           style="fill:#ffffff;stroke:#ffffff;stroke-width:0.82"
           d="m 115.93,94.10 c -3.38,-0.01 -6.70,1.19 -9.15,4.59 -4.32,7.70 -0.20,14.68 4.66,17.18 l 0.01,0.01 c 0,0 0.01,0 0.03,0 l 0.01,0 c 2.58,0.49 5.55,0.65 8.60,0.53 14.04,-0.53 11.80,-13.93 9.46,-16.71 -1.99,-2.37 -7.98,-5.60 -13.62,-5.62 z" />
        <path
           style="fill:#b7817c;stroke-width:0.82"
           d="m 115.93,93.65 c -4.01,-0.02 -10.09,2.13 -11.15,10.31 L 131.02,102.17 c -0.73,-4.72 -9.26,-8.34 -15.09,-8.52 z" />
        <path
           style="fill:#6dc4ba;stroke-width:0.82"
           d="m 115.86,94.10 c -3.36,0 -6.65,1.21 -9.08,4.59 -0.29,0.52 -0.52,1.04 -0.74,1.56 -0.10,0.24 -0.21,0.49 -0.30,0.74 -0.01,0.03 -0.01,0.05 -0.02,0.07 -0.21,0.60 -0.36,1.23 -0.51,1.86 -0.22,1.15 -0.30,2.27 -0.20,3.34 a 11.70,10.99 71.97 0 0 0.55,2.60 11.70,10.99 71.97 0 0 1.02,2.32 c 0.29,0.50 0.61,0.97 0.96,1.41 a 11.70,10.99 71.97 0 0 0.11,0.13 c 0.32,0.40 0.66,0.78 1.02,1.13 a 11.70,10.99 71.97 0 0 0.13,0.12 c 0.35,0.34 0.73,0.64 1.11,0.93 a 11.70,10.99 71.97 0 0 0.16,0.13 c 0.43,0.31 0.87,0.58 1.31,0.82 0.02,0.01 0.04,0.02 0.06,0.03 a 11.70,10.99 71.97 0 0 0.04,0.02 c 2.58,0.49 5.55,0.65 8.60,0.53 a 11.70,10.99 71.97 0 0 6.37,-14.37 11.70,10.99 71.97 0 0 -7.24,-7.60 c -1.10,-0.23 -2.23,-0.36 -3.35,-0.36 z" />
        <path
           style="fill:#6d8886;stroke-width:0.82"
           d="m 116.08,94.11 c -3.43,-0.05 -6.82,1.13 -9.30,4.59 -0.95,1.69 -1.49,3.35 -1.71,4.93 l 21.51,-1.14 c -1.16,-4.16 -3.91,-6.80 -7.08,-7.96 -1.12,-0.25 -2.27,-0.41 -3.42,-0.43 z" />
        <ellipse
           style="fill:#f7e5d4;stroke-width:0.82"
           cx="-104.37"
           cy="106.33"
           rx="2.75"
           ry="4.78"
           transform="matrix(-1,0.01,0.09,1,0,0)" />
        <path
           style="fill:#b1efd4;stroke-width:0.82"
           d="m 122.32,108.90 c -2.39,5.14 -9.51,5.30 -12.37,0.06 l -3.87,1.26 c 1.24,2.69 3.17,4.58 5.36,5.68 2.56,0.49 5.50,0.65 8.54,0.54 2.83,-1.01 5.26,-3.25 6.44,-6.67 z" />
        <path
           style="fill:none;stroke:#531608;stroke-width:0.82"
           d="m 94.53,54.45 c -2.05,-0.05 -4.10,0.03 -6.13,0.24 -23.54,2.46 -40.78,21.56 -39.05,43.29 1.72,21.64 21.66,38.21 45.25,37.61 l -1.6e-4,3.52 c 2.47,-0.09 5.13,1.03 7.48,2 l -1.5e-4,-6.31 C 125.21,130.53 140.59,110.28 137,88.84 133.75,69.44 115.87,54.96 94.53,54.45 Z" />
      </g>
      <g
         style="stroke-width:0.82">
        <path
           style="fill:#ffd596;stroke-width:0.82"
           d="M 115.37,-7.31 C 85.36,-2.16 69.44,12.72 70.41,24.36 c -3.90,1.16 -7.76,2.75 -11.50,4.84 0.43,-6.17 -8.99,-7.84 -13.40,-8.58 2.13,0.50 12.46,3.47 9.25,8.28 -12.62,-8.28 -25.87,-0.20 -32.99,6.84 -5.06,2.86 -10.34,5.69 -13.08,8.92 15.25,-4.88 13.40,2.20 34.14,-1.90 -4.20,5.09 -7.96,11.28 -11.08,18.75 -8.91,11.91 -16.60,14.84 -29.99,19.54 7.77,7.48 22.15,3.64 25.75,0 l -0.84,1.33 h 4.29 c -4.25,4.82 1.52,19.76 2.93,21.49 -2.64,7.85 -7.26,15.28 -16.28,21.66 5.18,-0.39 8.87,-1.16 15.96,-3.22 2.59,0.86 5.06,0.75 7.40,-0.35 -1.04,3.12 -2.87,6.51 -5.93,10.68 3.62,-1.37 6.71,-3.10 9.38,-5.11 1.57,4.18 3.94,6.98 7.11,8.39 -2.03,-3.52 -3.43,-7.14 -4.21,-10.84 6.62,5.16 13.03,7.10 20.12,4.93 l -4.46,-1.37 c 4.54,1.25 9.13,0.97 13.49,-1.10 -9.79,-1.85 -16.02,-5.40 -20.47,-14.79 6.54,-13.83 7.55,-30.98 13.96,-43.25 0.97,14.35 6.33,25.68 18.28,33.19 1.57,1.57 3.95,4.64 8.72,6.16 l -1.55,-2.04 c 5.23,2.04 15.28,0.69 18.24,0 -3.16,-3.05 -5.76,-7.09 -7.93,-13.41 0.11,-7.98 0.04,-15.69 0.31,-23.30 5.42,9.24 17.14,22.38 30.57,29.31 -3.72,7.65 -5.18,10.76 -13.75,19.69 2.36,0.08 5.20,-1.01 7.94,-2.61 -2.08,3.07 -2.90,4.62 -3.41,5.89 7.88,-4.35 15.21,-10.23 20.10,-18.99 l -0.07,-0.02 c 5.52,1.17 11.12,0.97 16.51,-1.23 -4.89,-0.03 -8.63,-1.08 -11.92,-2.54 7.25,-0.26 14.57,0.14 21.30,-5.81 -9.26,-1.79 -16.23,-6.17 -21.57,-11.78 0.70,-8.93 -3.57,-20.25 -10.37,-31.32 7.77,-1.25 13.64,-7.25 20.09,-11.81 -36.90,4.28 -27.49,-8.47 -56.06,-15.13 5.93,-2.81 11.45,-5.26 17.47,-7.44 -10.70,-0.57 -20.24,0.48 -28.60,5.71 C 93.53,21.96 92.75,21.91 91.97,21.88 100.25,11.63 109.04,1.13 115.37,-7.31 Z" />
        <path
           style="fill:#fff4e7;stroke-width:0.82"
           d="M 35.99,52.79 C 34.48,55.48 33.06,58.38 31.75,61.50 26.88,68.02 22.37,71.85 17.10,74.75 29.49,72.79 41.35,69.86 55.11,66.14 l 0.61,-5.82 C 49.66,58.87 42.92,56.03 35.99,52.79 Z" />
        <path
           style="fill:#fff4e7;stroke-width:0.82"
           d="m 57.56,65.38 5.76,-0.09 -0.39,-4.15 c -1.90,-0.06 -3.55,-0.24 -4.94,-0.56 z" />
        <path
           style="fill:#fff4e7;stroke-width:0.82"
           d="m 75.53,62.73 h 6.86 v -2.87 c -2.06,0.52 -4.34,0.45 -6.86,0.41 z" />
        <path
           style="fill:#fff4e7;stroke-width:0.82"
           d="m 86.22,61.16 5.14,-0.66 -0.60,-2.56 c -1.57,0.63 -3.22,1.08 -4.94,1.36 z" />
        <path
           style="fill:#fff4e7;stroke-width:0.82"
           d="m 107.32,53.80 5.96,-1.53 -2.15,-2.65 c -1.46,1.14 -3.12,2.02 -4.98,2.65 z" />
        <path
           style="fill:#fff4e7;stroke-width:0.82"
           d="m 124.96,31.90 c -3.11,5.15 -6.71,10.51 -11.56,16.36 l 2.53,1.79 c 10.91,-2.45 20.92,-6.45 31.03,-10.33 -11.93,-0.29 -15.90,-3.82 -22,-7.82 z" />
        <path
           style="fill:#c57600;stroke-width:0.82"
           d="m 56.04,113.43 c -2.09,4.33 -5.73,7.94 -8.70,11.65 0.37,0.67 4.36,2.61 4.36,2.61 0.38,-0.37 1.39,-1.34 2.58,-2.48 0.05,0.05 4.16,3.21 8.73,3.44 -2.53,-1.43 -5.76,-2.24 -7.77,-4.43 2,-1.93 4.78,-4.56 4.80,-4.60 l 5.209e-4,-5.3e-4 v -5.3e-4 -5.3e-4 c -1.60,-1.88 -2.79,-4.04 -4,-6.17 z m -8.70,11.65 -2.58,2.55 c 2.58,6.24 6.41,7.98 6.41,7.98 0,0 -3.17,-6.96 -3.83,-10.53 z" />
        <path
           style="fill:#fff4e7;stroke-width:0.82"
           d="m 38.49,80.44 c -1.84,27.16 -12.54,39.50 -17.98,42.89 5.37,-0.88 13.70,-7.49 21.38,-15 -0.21,-9.41 -1.59,-18.67 -3.40,-27.88 z" />
        <path
           style="fill:#fda056;stroke-width:0.82"
           d="m 136.58,99.53 c -0.76,1.56 -1.54,3.15 -2.13,4.30 l 8.78,5.84 c 2.42,-2.94 4.23,-6.03 4.22,-6.31 -3.90,-0.59 -7.37,-2.13 -10.87,-3.83 z" />
        <path
           style="fill:#fda056;stroke-width:0.82"
           d="m 138.82,59.46 c 3.45,7.78 6.75,15.62 12.97,22.47 0.42,-5.56 -1.09,-12.04 -3.92,-18.82 -2.82,-0.76 -5.97,-2.29 -9.05,-3.65 z m 13.70,23.22 c 0.36,0.38 0.70,0.75 1.08,1.12 l -10e-4,-0.14 c -0.36,-0.33 -0.74,-0.64 -1.08,-0.99 z" />
        <path
           style="fill:#fda056;stroke-width:0.82"
           d="m 65.31,83.18 c -0.84,0 1.95,-8.71 4.14,-12.63 0.09,0.86 0.61,2.89 1.10,4.18 C 68.22,76.90 65.31,83.55 65.31,83.18 Z" />
        <path
           style="fill:#fff4e7;stroke-width:0.82"
           d="M 35.99,52.79 C 34.48,55.48 33.06,58.38 31.75,61.50 26.88,68.02 22.37,71.85 17.10,74.75 29.49,72.79 41.35,69.86 55.11,66.14 l 0.61,-5.82 C 49.66,58.87 42.92,56.03 35.99,52.79 Z" />
        <path
           style="fill:#fff4e7;stroke-width:0.82"
           d="m 57.56,65.38 5.76,-0.09 -0.39,-4.15 c -1.90,-0.06 -3.55,-0.24 -4.94,-0.56 z" />
        <path
           style="fill:#fff4e7;stroke-width:0.82"
           d="m 75.53,62.73 h 6.86 v -2.87 c -2.06,0.52 -4.34,0.45 -6.86,0.41 z" />
        <path
           style="fill:#fff4e7;stroke-width:0.82"
           d="m 86.22,61.16 5.14,-0.66 -0.60,-2.56 c -1.57,0.63 -3.22,1.08 -4.94,1.36 z" />
        <path
           style="fill:#fff4e7;stroke-width:0.82"
           d="m 107.32,53.80 5.96,-1.53 -2.15,-2.65 c -1.46,1.14 -3.12,2.02 -4.98,2.65 z" />
        <path
           style="fill:#fff4e7;stroke-width:0.82"
           d="m 124.96,31.90 c -3.11,5.15 -6.71,10.51 -11.56,16.36 l 2.53,1.79 c 10.91,-2.45 20.92,-6.45 31.03,-10.33 -11.93,-0.29 -15.90,-3.82 -22,-7.82 z" />
        <path
           style="fill:#fda056;stroke-width:0.82"
           d="m 30.99,82.40 c 0.13,-0.16 7.51,-3.62 7.70,-3.62 -2.17,15.19 -3.68,23.80 -4.86,24.31 -1.34,0.58 -6.92,-15.86 -2.84,-20.69 z" />
        <path
           style="fill:#c57600;stroke-width:0.82"
           d="m 41.97,115.44 c 0.08,2.34 -0.26,4.41 -1.02,6.21 -1.45,1.03 -3.09,1.43 -4.92,1.19 2.46,-2.07 4.26,-4.68 5.94,-7.39 z" />
        <path
           style="fill:#fda056;stroke-width:0.82"
           d="m 99.93,61.95 c 1.97,4.81 3.50,10.39 5.93,14.37 -0.07,5.42 0.10,11.37 -0.10,17.07 -3.58,-10.49 -4.62,-20.96 -5.83,-31.44 z" />
        <path
           style="fill:#fda056;stroke-width:0.82"
           d="m 45.51,20.62 c 2.47,0.58 12.36,3.61 9.25,8.28 -1.10,-0.72 -2.20,-1.31 -3.30,-1.80 0,0 -4.06,-1.13 -6.12,-1.61 8.98,13.45 -13.93,18.77 -22.36,17.81 4.21,0.66 8.86,1.63 19.85,-0.55 11.93,-13.85 30.22,-10.89 30.84,-10.84 -1.95,-2.06 -3.04,-4.58 -3.26,-7.56 -3.90,1.16 -7.76,2.75 -11.50,4.84 0.47,-0.26 0.40,-0.23 0,-0.03 0.23,-5.76 -9.47,-7.38 -13.40,-8.55 z" />
        <path
           style="fill:#fff4e7;stroke-width:0.82"
           d="m 113.69,16.30 c -7.65,0.42 -15.28,2.52 -21.39,7.26 6,-1.53 13.80,-4.13 21.39,-7.26 z" />
        <path
           style="fill:#fff4e7;stroke-width:0.82"
           d="m 57.56,65.38 5.76,-0.09 -0.39,-4.15 c -1.90,-0.06 -3.55,-0.24 -4.94,-0.56 z" />
        <path
           style="fill:#fff4e7;stroke-width:0.82"
           d="m 75.53,62.73 h 6.86 v -2.87 c -2.06,0.52 -4.34,0.45 -6.86,0.41 z" />
        <path
           style="fill:#fff4e7;stroke-width:0.82"
           d="m 86.22,61.16 5.14,-0.66 -0.60,-2.56 c -1.57,0.63 -3.22,1.08 -4.94,1.36 z" />
        <path
           style="fill:#fff4e7;stroke-width:0.82"
           d="m 107.32,53.80 5.96,-1.53 -2.15,-2.65 c -1.46,1.14 -3.12,2.02 -4.98,2.65 z" />
        <path
           style="fill:#fff4e7;stroke-width:0.82"
           d="m 124.96,31.90 c -3.11,5.15 -6.71,10.51 -11.56,16.36 l 2.53,1.79 c 10.91,-2.45 20.92,-6.45 31.03,-10.33 -11.93,-0.29 -15.90,-3.82 -22,-7.82 z" />
        <path
           style="fill:#fff4e7;stroke-width:0.82"
           d="M 96.37,-2.15 C 85.54,2.08 70.81,10.39 70.41,24.36 74.82,17.45 83.14,14.24 89.55,9.03 c 3.23,-2.62 5.01,-7.13 6.82,-11.19 z" />
        <path
           style="fill:#fff4e7;stroke-width:0.82"
           d="m 21.78,35.74 c -2.21,1.25 -4.46,2.49 -6.52,3.76 -0.13,0.10 -0.25,0.20 -0.38,0.30 7.28,-2.44 14.71,-3.37 22.18,-4.42 3.57,-0.50 7.52,-3.70 8.83,-7.06 l 1.02,-2.62 c -8.50,-1.52 -17.89,2.88 -25.13,10.03 z" />
        <path
           style="fill:none;stroke:#7d3434;stroke-width:0.82"
           d="m 94.31,22.02 c -2.79,1.77 -5.13,3.74 -7.15,5.86 l 4.81,-6" />
        <path
           style="fill:none;stroke:#7d3434;stroke-width:0.82"
           d="m 95.50,28.54 9.94,-4.79" />
        <g
           style="stroke-width:0.82">
          <path
             style="fill:none;stroke-width:0.82"
             d="m 115.93,94.10 c -3.38,-0.01 -6.70,1.19 -9.15,4.59 -0.96,1.72 -1.51,3.40 -1.72,5 l 25.65,-1.53 c -0.32,-1.07 -0.75,-1.94 -1.17,-2.45 -1.99,-2.37 -7.98,-5.60 -13.62,-5.62 z" />
          <path
             style="fill:none;stroke:#7d3434;stroke-width:0.82"
             d="M 70.56,74.73 C 68.92,70.69 68.14,61.29 69.51,57.02" />
          <path
             style="fill:none;stroke:#7d3434;stroke-width:0.82"
             d="m 107.07,56.40 c -1.43,12.12 -1.13,24.32 -1.31,37.19 -4.18,-13.77 -6.27,-28.35 -6.27,-43.71" />
          <path
             style="fill:none;stroke:#7d3434;stroke-width:0.82"
             d="m 38.46,78.71 -7.49,3.66" />
          <path
             style="fill:none;stroke:#7d3434;stroke-width:0.82"
             d="m 136.64,99.39 c -3.72,7.65 -5.18,10.76 -13.75,19.69 3.40,0.11 7.78,-2.19 11.43,-4.93 -3.97,2.28 -5.24,4.09 -6.91,8.21 7.88,-4.35 15.21,-10.23 20.10,-18.99" />
          <path
             style="fill:none;stroke:#7d3434;stroke-width:0.82"
             d="m 151.78,82.01 c -5.60,-6.33 -9.73,-14.55 -12.97,-22.55" />
          <path
             style="fill:none;stroke:#7d3434;stroke-width:0.82"
             d="m 70.41,24.36 c 0.16,2.84 1.25,5.36 3.26,7.56" />
          <path
             style="fill:none;stroke:#7d3434;stroke-width:0.82"
             d="m 94.31,22.02 c -2.79,1.77 -5.13,3.74 -7.15,5.86 l 4.81,-6" />
          <path
             style="fill:none;stroke:#7d3434;stroke-width:0.82"
             d="m 95.50,28.54 9.94,-4.79" />
          <path
             style="fill:none;stroke:#7d3434;stroke-width:0.82"
             d="M 45.91,55.95 C 37.94,67.25 38.71,90.70 33.90,103.86" />
          <path
             style="fill:none;stroke:#7d3434;stroke-width:0.82"
             d="m 41.89,108.32 c 0.66,4.57 0.39,9.10 -0.80,13.58" />
          <path
             style="fill:none;stroke:#7d3434;stroke-width:0.82"
             d="m 56.03,112.75 c -2.22,4.80 -6.93,10.54 -11.59,14.78" />
          <path
             style="fill:none;stroke:#7d3434;stroke-width:0.82"
             d="m 42.84,42.75 c 4.71,-5.47 9.98,-9.99 16.07,-13.55" />
          <path
             style="fill:none;stroke-width:0.82"
             d="m 115.93,94.10 c -3.38,-0.01 -6.70,1.19 -9.15,4.59 -0.96,1.72 -1.51,3.40 -1.72,5 l 25.65,-1.53 c -0.32,-1.07 -0.75,-1.94 -1.17,-2.45 -1.99,-2.37 -7.98,-5.60 -13.62,-5.62 z" />
          <path
             style="fill:none;stroke:#7d3434;stroke-width:0.82"
             d="m 107.07,56.40 c -1.43,12.12 -1.13,24.32 -1.31,37.19 -4.18,-13.77 -6.27,-28.35 -6.27,-43.71" />
          <path
             style="fill:none;stroke:#7d3434;stroke-width:0.82"
             d="m 38.46,78.71 -7.49,3.66" />
          <path
             style="fill:none;stroke:#7d3434;stroke-width:0.82"
             d="m 136.64,99.39 c -3.72,7.65 -5.18,10.76 -13.75,19.69 3.40,0.11 7.78,-2.19 11.43,-4.93 -3.97,2.28 -5.24,4.09 -6.91,8.21 7.88,-4.35 15.21,-10.23 20.10,-18.99" />
          <path
             style="fill:none;stroke:#7d3434;stroke-width:0.82"
             d="m 151.78,82.01 c -5.60,-6.33 -9.73,-14.55 -12.97,-22.55" />
          <path
             style="fill:none;stroke:#7d3434;stroke-width:0.82"
             d="m 70.41,24.36 c 0.16,2.84 1.25,5.36 3.26,7.56" />
          <path
             style="fill:none;stroke:#7d3434;stroke-width:0.82"
             d="M 45.91,55.95 C 37.94,67.25 38.71,90.70 33.90,103.86" />
          <path
             style="fill:none;stroke:#7d3434;stroke-width:0.82"
             d="m 41.89,108.32 c 0.66,4.57 0.39,9.10 -0.80,13.58" />
          <path
             style="fill:none;stroke:#7d3434;stroke-width:0.82"
             d="m 56.03,112.75 c -2.22,4.80 -6.93,10.54 -11.59,14.78" />
          <path
             style="fill:none;stroke:#7d3434;stroke-width:0.82"
             d="M 115.37,-7.31 C 85.36,-2.16 69.44,12.72 70.41,24.36 c -3.90,1.16 -7.76,2.75 -11.50,4.84 0.43,-6.17 -8.99,-7.84 -13.40,-8.58 2.13,0.50 12.46,3.47 9.25,8.28 -12.62,-8.28 -25.87,-0.20 -32.99,6.84 -5.06,2.86 -10.34,5.69 -13.08,8.92 15.25,-4.88 13.40,2.20 34.14,-1.90 -4.20,5.09 -7.96,11.28 -11.08,18.75 -8.91,11.91 -16.60,14.84 -29.99,19.54 7.77,7.48 22.15,3.64 25.75,0 l -0.84,1.33 h 4.29 c -4.25,4.82 1.52,19.76 2.93,21.49 -2.64,7.85 -7.26,15.28 -16.28,21.66 5.18,-0.39 8.87,-1.16 15.96,-3.22 2.59,0.86 5.06,0.75 7.40,-0.35 -1.04,3.12 -2.87,6.51 -5.93,10.68 3.62,-1.37 6.71,-3.10 9.38,-5.11 1.57,4.18 3.94,6.98 7.11,8.39 -2.03,-3.52 -3.43,-7.14 -4.21,-10.84 6.62,5.16 13.03,7.10 20.12,4.93 l -4.46,-1.37 c 4.54,1.25 9.13,0.97 13.49,-1.10 -9.79,-1.85 -16.02,-5.40 -20.47,-14.79 6.54,-13.83 6.44,-29.81 14.53,-38.02 3.18,13.69 5.76,20.45 17.71,27.95 1.57,1.57 3.95,4.64 8.72,6.16 l -1.55,-2.04 c 5.23,2.04 15.28,0.69 18.24,0 -3.16,-3.05 -5.76,-7.09 -7.93,-13.41 0.11,-7.98 0.04,-15.69 0.31,-23.30 5.42,9.24 17.14,22.38 30.57,29.31 -3.72,7.65 -5.18,10.76 -13.75,19.69 2.36,0.08 5.20,-1.01 7.94,-2.61 -2.08,3.07 -2.90,4.62 -3.41,5.89 7.88,-4.35 15.21,-10.23 20.10,-18.99 l -0.07,-0.02 c 5.52,1.17 11.12,0.97 16.51,-1.23 -4.89,-0.03 -8.63,-1.08 -11.92,-2.54 7.25,-0.26 14.57,0.14 21.30,-5.81 -9.26,-1.79 -16.23,-6.17 -21.57,-11.78 0.70,-8.93 -3.57,-20.25 -10.37,-31.32 7.77,-1.25 13.64,-7.25 20.09,-11.81 -36.90,4.28 -27.49,-8.47 -56.06,-15.13 5.93,-2.81 11.45,-5.26 17.47,-7.44 -10.70,-0.57 -20.24,0.48 -28.60,5.71 C 93.53,21.96 92.75,21.91 91.97,21.88 100.25,11.63 109.04,1.13 115.37,-7.31 Z" />
        </g>
      </g>
      <g
         style="stroke-width:0.82">
        <path
           style="fill:#531608;stroke-width:0.82"
           d="m 72.13,80.65 c -3.82,2.03 -6.89,3.87 -12.66,9.77 -0.73,0.74 -1.84,-0.35 -1.12,-1.09 3.69,-4.32 8.13,-7.26 13.12,-9.91 0.83,-0.44 1.48,0.80 0.66,1.24 z" />
        <path
           style="fill:#531608;stroke-width:0.82"
           d="m 102.62,76.28 c 3.79,-0.04 5.57,0.16 7.28,0.44 2.67,0.43 5.39,1.12 8.51,2.07 0.99,0.30 1.45,-1.19 0.46,-1.49 -6.04,-1.85 -7.27,-2.02 -8.73,-2.21 -2.50,-0.32 -5.02,-0.23 -7.53,-0.21 -0.93,0.01 -0.92,1.41 0.02,1.40 z" />
      </g>
    </g>
  </g>  
</svg>
